<svg width="56" height="56" viewBox="0 0 56 56" fill="none" xmlns="http://www.w3.org/2000/svg">
<path d="M28.8418 56C30.5892 56 32.3384 56 34.0858 56C34.333 55.8831 34.5802 55.7642 34.8556 55.6341C34.6627 55.3191 34.4978 55.055 34.3386 54.7872C32.3104 51.3788 30.6379 47.8232 29.8663 43.8886C28.9205 39.0712 30.8327 33.9689 34.6477 31.3471C35.2245 32.8825 35.7826 34.4047 36.3763 35.9118C36.4943 36.2098 36.7097 36.6247 36.955 36.687C38.2829 37.0284 38.6874 38.047 38.9889 39.207C39.1931 39.9935 39.4216 40.7857 39.7512 41.527C40.6164 43.4717 40.2512 45.3164 39.4909 47.1781C39.3785 47.4554 39.474 47.9666 39.6706 48.2005C40.9798 49.7509 42.5885 50.9261 44.4015 51.8201C44.5663 51.9012 44.7517 51.9446 44.997 52.0295C43.5193 47.9892 43.8302 46.1294 46.3118 43.7867C47.3587 45.0052 47.3568 45.0033 46.5196 46.3576C45.8529 47.4384 45.1918 48.523 44.5681 49.5453C45.3472 50.6205 47.3718 50.5639 46.7107 52.6406C48.0142 52.6406 49.1847 52.6482 50.3571 52.6388C51.1849 52.6312 51.7674 52.3181 51.9809 51.4221C52.4004 49.6472 53.4099 48.4249 55.2715 48.059C55.4325 48.0269 55.5767 47.9025 55.7378 47.8157C54.5354 46.3161 53.9155 44.5563 53.9062 42.3664C53.8837 37.781 53.8968 33.1937 53.908 28.6083C53.908 28.3461 53.938 27.9821 54.1028 27.8387C54.7002 27.3162 55.3614 26.8673 56 26.3901C56 26.3279 56 26.2637 56 26.2015C54.6422 24.7283 53.2844 23.2873 53.1177 21.0936C52.9735 19.1847 52.6963 17.2797 51.5239 15.6575C51.4415 15.5425 51.4059 15.3652 51.4078 15.218C51.434 11.4531 51.4696 7.68823 51.4995 3.92334C51.5014 3.70077 51.4658 3.47819 51.4359 3.09717C49.8402 4.88908 48.3644 6.54519 46.8474 8.25033C45.8454 6.90734 44.437 5.99252 42.8283 5.59076C40.3655 4.97585 38.841 3.531 38.163 1.10721C38.1536 1.07703 38.0694 1.0676 37.9214 1.00913C37.5674 2.32382 37.2153 3.62909 36.8932 4.82118C35.6365 4.47978 34.4566 4.04783 33.2393 3.85355C31.3046 3.54421 30.0124 2.4917 29.164 0.777122C29.0291 0.501734 28.8325 0.258412 28.6639 0C28.4523 1.26188 28.2425 2.52376 28.0253 3.81959C27.3548 3.8875 26.6712 3.92523 25.997 4.03086C19.6256 5.02678 14.5033 8.14093 10.6303 13.3186C9.07395 15.3972 7.05127 16.6798 4.53978 17.1929C3.71947 17.3608 2.88605 17.4532 1.96274 17.5947C2.62386 19.1866 3.72509 20.3731 4.81883 21.1879C4.22514 22.9874 3.47413 24.5756 3.21755 26.243C2.95535 27.9481 3.17635 29.7306 3.18571 31.4791C3.2007 31.6036 3.21381 31.73 3.22879 31.8545C3.83184 34.9366 2.78492 37.1397 3.8147e-06 38.6449C1.21173 38.7618 2.42534 38.9957 3.63145 38.9542C4.36561 38.9297 4.62593 39.1391 4.92934 39.7521C9.28933 48.5796 16.3106 53.8176 25.9652 55.4756C26.9222 55.6435 27.8811 55.8265 28.8418 56ZM40.1201 38.2243C40.461 38.362 40.7962 38.5147 41.1427 38.6355C41.7214 38.8373 42.3057 39.0202 42.8882 39.2126C41.3188 38.1677 39.7362 37.1397 38.1892 36.0608C37.8334 35.8118 37.4888 35.4327 37.3296 35.0347C36.5936 33.2088 35.91 31.3603 35.2489 29.5061C35.1346 29.1874 35.1178 28.7498 35.2395 28.4404C36.3632 25.6205 38.3166 23.491 40.8018 21.8236C40.755 21.7066 40.6707 21.484 40.6651 21.4859C40.1538 21.6708 39.65 21.8726 39.1444 22.0726C38.8784 22.2782 38.62 22.497 38.3428 22.6893C36.3089 24.1097 34.8218 25.9582 34.0334 28.3329C33.9135 28.6932 34.0203 29.1232 33.9585 29.5099C33.9023 29.857 33.8611 30.3134 33.6326 30.5077C29.1771 34.3085 27.6751 39.1183 28.9636 44.7713C29.4824 47.0423 30.3926 49.2228 31.1248 51.4448C31.2241 51.6881 31.3215 51.9333 31.4208 52.1766C31.3608 52.237 31.3028 52.2974 31.2428 52.3577C29.3606 51.2901 27.7818 49.8207 26.469 48.0911C22.6146 43.0171 21.4441 37.3547 22.8506 31.0359C22.0116 32.1091 21.1725 33.1805 20.3335 34.2538C20.2492 34.2198 20.1668 34.1859 20.0825 34.15C20.3541 32.709 20.6238 31.266 20.8954 29.8249C21.0321 29.1006 21.1707 28.3763 21.3074 27.6501L21.3224 27.6746C20.326 28.846 19.3315 30.0154 18.2659 31.266C18.3614 30.421 18.412 29.6401 18.5412 28.8724C19.5488 22.9327 22.3674 18.2586 27.7949 15.3746C31.962 13.1602 36.4231 12.3585 41.079 12.4585C42.1241 12.4811 43.1691 12.6113 43.9969 12.6754C43.9445 14.1617 43.8958 15.516 43.849 16.8704C43.8396 17.0137 43.8302 17.1589 43.8209 17.3023C43.2272 17.1646 42.6335 17.0269 42.0398 16.8892C42.7983 17.7361 43.6654 18.3397 44.3584 19.1055C45.0794 19.9015 45.63 20.8541 46.2556 21.7368C46.3024 21.6953 46.3586 21.667 46.4204 21.6557C46.5477 19.9751 46.5683 18.2775 46.8231 16.6176C47.2688 13.7241 48.1546 10.9476 49.4731 8.32578C49.6061 8.06359 49.6548 7.49961 50.2073 7.89006C50.3271 8.00512 50.5463 8.11641 50.5481 8.23335C50.5744 9.26889 50.5762 10.3063 50.5481 11.3437C50.5425 11.5173 50.3534 11.6851 50.2485 11.8549C50.0818 14.3711 49.9151 16.8854 49.7503 19.4017C49.7728 19.5243 49.7953 19.6488 49.8177 19.7714C50.2185 18.9509 50.6212 18.1304 51.022 17.308C51.4527 18.4963 51.7543 19.711 51.8741 20.9427C52.0221 22.4573 52.4659 23.8154 53.4061 25.0075C53.6758 25.3489 53.923 25.7092 54.2096 26.0996C53.7751 26.4844 53.3574 26.8541 52.9416 27.2219C52.9491 32.2148 52.9604 37.2076 52.9547 42.2004C52.9547 42.4645 52.8255 42.7286 52.7581 42.9926C52.7881 43.2378 52.8199 43.483 52.8499 43.7282C52.8686 43.8622 52.8873 43.998 52.9061 44.1319C53.1664 45.1882 53.4286 46.2426 53.7151 47.4045C52.5596 47.6346 51.8573 48.3683 51.419 49.5699C50.6437 51.6938 50.565 51.6636 48.2914 51.4957C48.2389 51.4919 48.1921 51.4391 48.1003 51.3825C48.3794 49.2907 48.6603 47.1838 48.9412 45.075C48.7128 44.8241 48.5105 44.5431 48.252 44.3281C47.0309 43.3038 45.793 42.2966 44.5625 41.2818C44.8472 41.7534 45.1319 42.2268 45.3903 42.655C44.3359 44.7845 42.2121 46.4274 42.7646 49.2869C42.0173 48.7927 41.315 48.2854 40.8112 47.6233C40.6333 47.3894 40.9329 46.7764 41.0378 46.3425C41.1839 45.7352 41.3487 45.1316 41.506 44.5261C41.3637 43.6339 41.2869 42.7248 41.0622 41.8533C40.7588 40.6707 40.343 39.5163 39.9759 38.3488C39.9797 38.2808 39.9834 38.2111 39.9872 38.1431C40.0377 38.1733 40.0789 38.1997 40.1201 38.2243ZM28.4823 7.32419C28.5984 6.66402 28.7051 6.00195 28.8306 5.34177C28.9598 4.66651 29.1097 3.99501 29.3007 3.08586C30.7409 4.75893 32.5576 4.86645 34.2188 5.35309C34.7226 5.48135 35.232 5.59076 35.7283 5.74354C36.6198 6.01893 37.0955 6.57159 36.8333 7.56563C36.9044 7.71087 36.9737 7.85611 37.0786 8.06925C37.4532 6.74513 37.7997 5.52096 38.2154 4.04971C39.3579 5.60962 40.7588 6.13021 42.2177 6.64892C43.3077 7.03749 44.3584 7.65051 45.2854 8.35407C46.3399 9.15383 46.2743 9.41978 45.3529 10.4534C45.2405 11.6663 44.3902 11.538 43.5624 11.4512C38.5526 10.9306 33.6644 11.4135 29.0085 13.4299C23.0922 15.9933 19.3034 20.3655 17.9119 26.7957C17.2995 29.6269 17.4437 32.4713 17.425 35.3214C18.013 34.1066 18.6011 32.8919 19.1892 31.6791C19.2379 31.696 19.2866 31.713 19.3353 31.73C19.3353 33.6275 19.3353 35.5251 19.3353 37.4226C19.4139 37.4302 19.4926 37.4377 19.5713 37.4452C19.8578 36.9699 20.1443 36.4927 20.4309 36.0174C20.7343 35.4289 21.0396 34.8423 21.4366 34.0727C20.7624 43.5415 24.4819 50.3017 32.7055 54.657C19.2903 55.2681 9.42791 47.7704 5.9313 38.8278C7.16739 37.9281 8.36227 37.0586 9.55527 36.1909C9.19943 36.2815 8.8361 36.3456 8.49149 36.4644C7.40337 36.8454 6.33585 37.2925 5.23461 37.6226C4.64654 37.798 4.0004 37.7848 3.11642 37.8866C4.61845 35.7005 4.60533 33.5049 4.5042 31.2924C3.74007 28.431 4.21391 25.7186 5.42938 23.076C5.83017 22.2027 6.33209 21.7821 7.31159 22.1706C7.5869 22.28 7.92776 22.214 8.24053 22.2291C7.38651 21.6651 6.49691 21.1502 5.69159 20.5221C5.0286 20.0053 4.46675 19.3545 3.6558 18.5661C7.6562 18.0549 10.2145 15.9631 12.3833 13.0866C14.4471 10.3497 17.1253 8.28617 20.3485 7.0224C20.4964 6.91488 20.6313 6.7489 20.7961 6.7074C22.9218 6.15474 25.0512 5.60585 27.1862 5.08525C27.8492 4.92304 28.25 5.17768 28.2744 5.93971C28.2856 6.40372 28.4073 6.86207 28.4823 7.32419ZM47.0909 49.9547C46.6845 49.6566 46.426 49.4661 46.1301 49.2492C46.5234 48.623 46.8755 48.0628 47.2257 47.5045C47.2894 47.5309 47.3531 47.5592 47.4167 47.5856C47.3175 48.3061 47.2182 49.0266 47.0909 49.9547Z" fill="#262A38"/>
<path d="M43.8508 16.8741C43.8995 15.5198 43.9464 14.1655 43.9988 12.6792C43.171 12.615 42.1259 12.4849 41.0809 12.4623C36.4231 12.3623 31.9639 13.1639 27.7968 15.3784C22.3712 18.2624 19.5507 22.9364 18.5431 28.8762C18.4138 29.642 18.3633 30.4229 18.2677 31.2698C19.3315 30.0192 20.3279 28.8479 21.3242 27.6784C21.3486 27.6633 21.3711 27.6444 21.3973 27.6331C21.4029 27.6312 21.4216 27.6539 21.4329 27.6671C21.3917 27.6614 21.3486 27.6577 21.3074 27.652C21.1707 28.3763 21.0321 29.1006 20.8954 29.8268C20.6238 31.2679 20.3541 32.7108 20.0825 34.1519C20.1668 34.1859 20.2492 34.2198 20.3335 34.2557C21.1725 33.1824 22.0116 32.111 22.8506 31.0378C21.4441 37.3547 22.6146 43.019 26.469 48.093C27.7837 49.8226 29.3606 51.292 31.2428 52.3596C31.3028 52.2992 31.3608 52.2389 31.4208 52.1785C31.3215 51.9352 31.2241 51.69 31.1248 51.4467C30.8177 51.1675 30.4113 50.9449 30.2203 50.6016C29.2052 48.7701 28.0365 46.9858 27.3042 45.0411C25.5962 40.5047 25.6767 35.9023 27.7556 31.4961C29.973 26.7919 33.8835 23.9267 38.5881 22.0556C38.7455 21.9933 38.9571 22.0669 39.1425 22.0763C39.6482 21.8764 40.152 21.6746 40.6633 21.4897C40.6689 21.4878 40.7531 21.7104 40.8 21.8273C40.5153 22.2951 40.2569 22.7837 39.9422 23.2307C38.148 25.7639 36.5692 28.3782 37.6629 31.664C38.1124 33.0145 38.635 34.4103 39.4553 35.5421C40.2044 36.5776 41.4124 37.2698 42.3919 38.145C42.7271 38.4449 42.9818 38.8354 43.274 39.1843C43.304 39.2579 43.3358 39.3334 43.3658 39.4069C43.643 39.5314 43.9201 39.6578 44.1973 39.7823C44.5775 40.0388 44.9577 40.2953 45.3379 40.55C48.1303 39.5522 49.1173 37.1453 49.7896 34.582C50.2335 32.8938 50.4339 31.1415 50.7429 29.4175C50.7616 29.2477 50.7785 29.0761 50.8028 28.8497C50.1867 29.1082 49.6473 29.3345 49.1079 29.5608C48.2801 30.1512 48.2689 31.0943 48.0741 31.9639C47.943 32.5524 47.6377 33.1201 46.9635 32.9617C46.5683 32.8693 46.0439 32.46 45.9484 32.094C45.5982 30.7379 45.351 29.3477 45.1618 27.9576C45.0026 26.7843 44.9408 25.5809 45.8997 24.7472C46.2144 25.6036 46.5328 26.4656 46.8511 27.3295C46.9579 27.3295 47.0628 27.3313 47.1695 27.3313C47.2913 26.5203 47.4111 25.7073 47.5591 24.7265C47.2444 24.4454 46.75 24.0022 46.2574 23.5608C46.0421 23.5231 45.8286 23.4834 45.6132 23.4457C45.6169 23.3401 45.6207 23.2364 45.6263 23.1307C46.4597 23.1307 47.295 23.1307 48.1284 23.1307C47.9262 22.9044 47.7557 22.6365 47.5141 22.4649C47.2519 22.28 46.9261 22.1857 46.6283 22.0518C46.5028 21.9499 46.3773 21.8481 46.2537 21.7444C45.6282 20.8616 45.0757 19.9091 44.3565 19.1131C43.6636 18.3473 42.7983 17.7418 42.0379 16.8968C42.6316 17.0345 43.2253 17.1722 43.819 17.3098C43.834 17.1627 43.8415 17.0175 43.8508 16.8741ZM41.3674 21.1653C41.4667 21.0955 41.5248 21.0446 41.5922 21.0163C41.6053 21.0106 41.6896 21.1012 41.6821 21.1276C41.6577 21.1992 41.6016 21.2596 41.5585 21.3256C41.506 21.2803 41.4517 21.237 41.3674 21.1653Z" fill="#FDFDFD"/>
<path d="M9.55152 36.189C8.35852 37.0567 7.16552 37.9262 5.92757 38.826C9.42417 47.7685 19.2866 55.2663 32.7018 54.6551C24.4781 50.2998 20.7586 43.5415 21.4329 34.0708C21.0339 34.8404 20.7305 35.427 20.4271 36.0155C20.5077 36.0834 20.6669 36.1645 20.6575 36.2192C20.341 38.2752 20.0076 40.3274 19.6668 42.4418C18.3052 40.2689 17.5111 37.9149 17.4212 35.3214C17.44 32.4713 17.2957 29.6288 17.9082 26.7957C19.2997 20.3674 23.0885 15.9933 29.0048 13.4299C33.6607 11.4135 38.5488 10.9288 43.5587 11.4512C44.3865 11.538 45.2367 11.6663 45.3491 10.4534C44.0306 9.18023 42.5773 8.14847 40.7344 7.66749C40.8468 8.39557 40.961 8.94257 41.0097 9.49524C41.0753 10.2139 40.6707 10.5044 40.0265 10.3195C38.5113 9.88002 36.9756 9.47449 35.5167 8.88221C34.4005 8.42952 33.4022 7.69012 32.3235 7.1318C31.9208 6.92243 31.4432 6.86396 30.9394 6.71872C31.0818 7.53734 31.2559 8.14282 31.2747 8.75206C31.3046 9.76119 31.1005 9.88946 30.1004 9.67254C28.1526 9.24814 26.2161 9.31604 24.2702 9.71781C21.4216 10.3044 19.2997 12.0737 17.2583 13.992C14.9341 16.1781 12.3627 17.9606 9.27808 18.898C9.06083 18.9641 8.86232 19.0942 8.44093 19.2979C9.04398 19.5827 9.43727 19.8845 9.86428 19.9468C10.8119 20.0845 11.7783 20.1015 12.7372 20.1694C12.756 20.1543 12.7728 20.1411 12.7915 20.126C12.7709 20.1373 12.7485 20.1486 12.7279 20.1599C10.7445 22.2819 9.14324 24.634 8.18247 27.4181C7.52697 29.3194 7.10933 32.0959 7.4427 33.3559C8.30795 31.0774 9.64891 29.2591 11.8832 28.0368C12.1042 36.4493 13.7916 44.0829 20.6968 49.849C20.2005 49.7095 19.9608 49.6736 19.7473 49.5774C16.0934 47.9081 13.4414 45.1505 11.46 41.7081C10.516 40.0671 9.86054 38.3054 9.90362 36.355C9.91298 36.0381 9.88301 35.7797 9.55152 36.189Z" fill="#1F6A99"/>
<path d="M12.7391 20.1675C11.7802 20.1014 10.8157 20.0826 9.86615 19.9449C9.43915 19.8827 9.04398 19.5809 8.44279 19.296C8.86419 19.0923 9.0627 18.9622 9.27995 18.8962C12.3645 17.9587 14.9341 16.1762 17.2602 13.9901C19.3016 12.0699 21.4235 10.3025 24.2721 9.71592C26.218 9.31604 28.1564 9.24625 30.1023 9.67065C31.1005 9.88757 31.3065 9.7593 31.2765 8.75018C31.2578 8.14093 31.0818 7.53545 30.9413 6.71683C31.4451 6.86207 31.9227 6.92243 32.3253 7.12991C33.4041 7.69012 34.4023 8.42952 35.5185 8.88033C36.9775 9.47071 38.5132 9.87814 40.0284 10.3176C40.6707 10.5044 41.0753 10.212 41.0116 9.49335C40.961 8.94069 40.8487 8.39557 40.7363 7.6656C42.5792 8.14659 44.0325 9.17835 45.351 10.4515C46.2724 9.4179 46.3361 9.15383 45.2836 8.35219C44.3584 7.64863 43.3058 7.0356 42.2158 6.64704C40.7588 6.12644 39.356 5.60585 38.2136 4.04783C37.7978 5.51908 37.4513 6.74324 37.0767 8.06737C36.9737 7.85611 36.9026 7.70898 36.8333 7.56374C35.9624 6.82623 35.0897 6.08872 34.2188 5.35121C32.5576 4.86456 30.7409 4.75705 29.3007 3.08397C29.1097 3.99313 28.9598 4.66463 28.8306 5.33989C28.7032 5.99818 28.5965 6.66024 28.4823 7.32231C26.7237 7.13557 24.9688 6.88848 23.2064 6.78851C22.2607 6.73569 21.2999 6.93375 20.3466 7.01863C17.1234 8.2824 14.4434 10.3459 12.3814 13.0828C10.2126 15.9593 7.65433 18.0492 3.65393 18.5623C4.46487 19.3526 5.02673 20.0015 5.68971 20.5183C6.49504 21.1464 7.38463 21.6614 8.23865 22.2253C8.10193 22.4988 7.96334 22.7705 7.82663 23.044C6.94077 24.8264 5.9875 26.5787 5.19715 28.4027C4.80947 29.2968 4.72332 30.3229 4.50232 31.2905C4.60345 33.503 4.61657 35.6986 3.11455 37.8847C4.0004 37.7829 4.64466 37.7961 5.23274 37.6207C6.33584 37.2906 7.40149 36.8435 8.48962 36.4625C8.83422 36.3418 9.19755 36.2777 9.55339 36.189C9.88489 35.7816 9.91486 36.0381 9.90736 36.355C9.86429 38.3054 10.5179 40.0671 11.4637 41.7081C13.4452 45.1505 16.099 47.9081 19.751 49.5774C19.9646 49.6755 20.2062 49.7095 20.7006 49.849C13.7954 44.0829 12.1079 36.4493 11.887 28.0368C9.65265 29.2591 8.3117 31.0774 7.44644 33.3559C7.1112 32.0959 7.53072 29.3175 8.18622 27.4181C9.14699 24.634 10.7483 22.2819 12.7316 20.1599L12.7391 20.1675Z" fill="#2FA2EA"/>
<path d="M46.6339 22.048C46.9317 22.182 47.2576 22.2744 47.5197 22.4611C47.7595 22.6309 47.9318 22.9006 48.134 23.127C48.2595 23.1439 48.3831 23.159 48.5086 23.176C49.1004 22.5781 49.6304 22.7327 49.99 23.6042C51.0444 24.2662 52.4996 24.6322 52.0464 26.4128C51.9153 27.3464 51.7842 28.2782 51.6531 29.2119C51.7037 29.5571 51.8217 29.906 51.7973 30.2474C51.6512 32.2921 51.4733 34.3349 51.3066 36.3795C51.3216 36.6285 51.3385 36.8775 51.3535 37.1265C51.4059 38.0356 51.4302 38.9467 51.5183 39.8521C51.6793 41.5006 51.095 42.8587 50.005 44.0395C49.6529 44.3865 49.3008 44.7336 48.9487 45.0807C48.6678 47.1895 48.3869 49.2964 48.1078 51.3882C48.1996 51.4448 48.2483 51.4976 48.2989 51.5014C50.5725 51.6692 50.6511 51.6975 51.4265 49.5755C51.8648 48.374 52.5689 47.6422 53.7226 47.4102C53.4361 46.2482 53.1739 45.1938 52.9135 44.1376C52.8948 44.0036 52.8761 43.8678 52.8574 43.7339C52.8274 43.4887 52.7956 43.2435 52.7656 42.9983C52.7375 42.9096 52.6832 42.821 52.6813 42.7342C52.6738 37.7772 52.6682 32.8184 52.6794 27.8614C52.6794 27.6501 52.8555 27.4407 52.9491 27.2295C53.3649 26.8598 53.7825 26.492 54.217 26.1072C53.9305 25.7167 53.6833 25.3565 53.4136 25.0151C52.4734 23.823 52.0296 22.463 51.8816 20.9503C51.7617 19.7185 51.4602 18.5038 51.0295 17.3155C50.6287 18.136 50.226 18.9565 49.8252 19.7789C49.7129 19.7789 49.6024 19.7789 49.49 19.7789C49.5799 19.6563 49.6679 19.5318 49.7578 19.4092C49.9245 16.893 50.0912 14.3787 50.256 11.8624C50.2429 10.5421 50.2279 9.21985 50.2148 7.89949C49.6623 7.51093 49.6117 8.07302 49.4806 8.33521C48.1621 10.9571 47.2763 13.7336 46.8305 16.627C46.574 18.2869 46.5534 19.9845 46.4279 21.6651C46.4934 21.7896 46.5646 21.9198 46.6339 22.048ZM51.6175 45.8106C50.7092 48.4589 51.2542 48.0477 49.8758 48.1948C49.8027 47.0801 50.3421 46.3407 51.6175 45.8106ZM49.3402 20.3221C49.3889 20.3014 49.4357 20.275 49.4862 20.2637C49.4956 20.2618 49.5387 20.3184 49.5312 20.3297C49.505 20.3731 49.4675 20.4089 49.4338 20.4485C49.4038 20.4051 49.372 20.3636 49.3402 20.3221Z" fill="#FEFEFE"/>
<path d="M39.1463 22.0744C38.9608 22.065 38.7492 21.9896 38.5919 22.0537C33.8854 23.9248 29.9768 26.79 27.7593 31.4942C25.6805 35.9004 25.5999 40.5047 27.308 45.0392C28.0403 46.9858 29.2089 48.7682 30.224 50.5998C30.415 50.943 30.8214 51.1675 31.1286 51.4448C30.3963 49.2228 29.4842 47.0423 28.9673 44.7713C27.6788 39.1202 29.1808 34.3085 33.6363 30.5077C33.8648 30.3135 33.906 29.8551 33.9622 29.5099C34.0259 29.1232 33.9173 28.6932 34.0371 28.3329C34.8275 25.9582 36.3126 24.1097 38.3465 22.6893C38.6219 22.4988 38.8803 22.28 39.1463 22.0744Z" fill="#BDBDBD"/>
<path d="M51.3048 36.3776C51.4715 34.3349 51.6494 32.2921 51.7955 30.2455C51.8198 29.906 51.7037 29.5552 51.6513 29.21C51.3497 29.2779 51.0501 29.3439 50.7485 29.4118C50.4395 31.1358 50.2391 32.8881 49.7953 34.5763C49.1229 37.1397 48.1359 39.5484 45.3435 40.5443C44.9783 40.7141 44.6131 40.8838 44.1299 41.1083C44.364 41.2007 44.467 41.2422 44.57 41.2837C45.8005 42.2966 47.0384 43.3038 48.2595 44.33C48.5161 44.545 48.7202 44.826 48.9487 45.0769C49.3008 44.7298 49.6529 44.3828 50.005 44.0357C50.3852 41.7213 50.7673 39.405 51.1475 37.0906C51.1999 36.8549 51.2523 36.6172 51.3048 36.3776Z" fill="#BDBDBD"/>
<path d="M43.2778 39.1806C42.9856 38.8316 42.7309 38.4412 42.3956 38.1413C41.4161 37.2679 40.2082 36.5738 39.459 35.5383C38.6387 34.4065 38.1162 33.0089 37.6667 31.6602C36.5711 28.3744 38.1518 25.7582 39.9459 23.2269C40.2625 22.7818 40.519 22.2932 40.8037 21.8236C38.3166 23.4891 36.3632 25.6186 35.2414 28.4404C35.1178 28.7479 35.1365 29.1855 35.2507 29.5061C35.9118 31.3622 36.5954 33.2088 37.3315 35.0347C37.4907 35.4308 37.8353 35.8118 38.1911 36.0608C39.7381 37.1397 41.3206 38.1658 42.8901 39.2126L42.8826 39.2051C43.0137 39.1975 43.1467 39.1881 43.2778 39.1806Z" fill="#BCBCBC"/>
<path d="M44.57 41.2875C44.467 41.246 44.3621 41.2045 44.1299 41.1121C44.6131 40.8876 44.9783 40.7178 45.3435 40.5481C44.9633 40.2916 44.5831 40.035 44.2029 39.7804C43.907 39.8426 43.5999 39.9879 43.3189 39.9483C42.6616 39.8577 42.0173 39.6785 41.2289 39.505C41.3937 40.0426 41.5173 40.3896 41.6034 40.7461C41.9106 42.0156 42.2552 43.2888 41.5154 44.5337C41.3581 45.1391 41.1914 45.7408 41.0472 46.3501C40.9442 46.7839 40.6427 47.3988 40.8206 47.6308C41.3244 48.2929 42.0267 48.8003 42.774 49.2945C42.2196 46.4331 44.3453 44.7902 45.3997 42.6625C45.1394 42.2306 44.8547 41.759 44.57 41.2875Z" fill="#F9F9F9"/>
<path d="M17.4212 35.3214C17.5111 37.9149 18.3071 40.2689 19.6668 42.4418C20.0076 40.3274 20.3391 38.2752 20.6575 36.2192C20.665 36.1645 20.5077 36.0834 20.4271 36.0155C20.1406 36.4908 19.8541 36.968 19.5675 37.4434C19.4888 37.4358 19.4102 37.4283 19.3315 37.4207C19.3315 35.5232 19.3315 33.6257 19.3315 31.7281C19.2828 31.7111 19.2341 31.6942 19.1855 31.6772C18.5974 32.8919 18.0093 34.1066 17.4212 35.3214Z" fill="#2FA0E7"/>
<path d="M4.49858 31.2924C4.72145 30.3267 4.80573 29.2987 5.1934 28.4046C5.98375 26.5806 6.93703 24.8283 7.82289 23.0458C7.95961 22.7723 8.09819 22.5007 8.23491 22.2272C7.92401 22.2121 7.58129 22.2782 7.30598 22.1688C6.32648 21.7802 5.82456 22.2027 5.42377 23.0741C4.20829 25.7186 3.73446 28.431 4.49858 31.2924Z" fill="#1F6998"/>
<path d="M20.3447 7.0224C21.298 6.93752 22.2588 6.73758 23.2046 6.79228C24.9669 6.89225 26.7237 7.13935 28.4804 7.32608C28.4073 6.86396 28.2837 6.40372 28.2688 5.94159C28.2444 5.17956 27.8436 4.92492 27.1806 5.08714C25.0456 5.60585 22.918 6.15474 20.7905 6.70929C20.6275 6.7489 20.4927 6.913 20.3447 7.0224Z" fill="#1F6998"/>
<path d="M41.5135 44.5318C42.2533 43.2869 41.9106 42.0137 41.6016 40.7442C41.5154 40.3878 41.3899 40.0407 41.227 39.5031C42.0136 39.6766 42.6597 39.8558 43.3171 39.9464C43.5999 39.986 43.907 39.8407 44.2011 39.7785C43.9239 39.654 43.6467 39.5276 43.3695 39.4031C43.2066 39.3371 43.0436 39.2711 42.8807 39.2051L42.8882 39.2126C42.3057 39.0221 41.7214 38.8392 41.1427 38.6355C40.7962 38.5147 40.461 38.362 40.1201 38.2243C40.0752 38.2676 40.0284 38.311 39.9834 38.3544C40.3505 39.5201 40.7663 40.6745 41.0697 41.859C41.2944 42.7304 41.3712 43.6396 41.5135 44.5318Z" fill="#B7B7B8"/>
<path d="M52.9473 27.2295C52.8536 27.4407 52.6794 27.6501 52.6776 27.8614C52.6663 32.8184 52.672 37.7772 52.6794 42.7342C52.6794 42.8229 52.7338 42.9115 52.7637 42.9983C52.833 42.7342 52.9604 42.4701 52.9604 42.2061C52.966 37.2132 52.9547 32.2204 52.9473 27.2295Z" fill="#444652"/>
<path d="M34.2188 5.35309C35.0897 6.0906 35.9624 6.82812 36.8333 7.56563C37.0936 6.57159 36.6198 6.01893 35.7283 5.74354C35.2301 5.59076 34.7207 5.48324 34.2188 5.35309Z" fill="#1F6896"/>
<path d="M50.2129 7.89383C50.226 9.21418 50.241 10.5364 50.2541 11.8568C50.359 11.687 50.5481 11.5191 50.5538 11.3456C50.5837 10.3101 50.58 9.27266 50.5538 8.23524C50.55 8.12018 50.3309 8.00889 50.2129 7.89383Z" fill="#181B29"/>
<path d="M47.0909 49.9547C47.2182 49.0266 47.3175 48.3061 47.4167 47.5837C47.3531 47.5573 47.2894 47.529 47.2257 47.5026C46.8736 48.0628 46.5234 48.6211 46.1301 49.2473C46.426 49.468 46.6845 49.6566 47.0909 49.9547Z" fill="#E9E9EA"/>
<path d="M49.7541 19.4054C49.6642 19.528 49.5761 19.6525 49.4862 19.7751C49.5986 19.7751 49.7091 19.7751 49.8215 19.7751C49.799 19.6525 49.7765 19.528 49.7541 19.4054Z" fill="#F9F9F9"/>
<path d="M46.6339 22.048C46.5646 21.9198 46.4934 21.7896 46.4241 21.6614C46.3623 21.6727 46.3061 21.6991 46.2593 21.7425C46.3848 21.8443 46.5084 21.9462 46.6339 22.048Z" fill="#F9F9F9"/>
<path d="M3.18197 31.4791C3.09207 31.5338 3.00217 31.5904 2.91415 31.6451C3.01716 31.7149 3.12203 31.7847 3.22504 31.8564C3.21006 31.73 3.19508 31.6036 3.18197 31.4791Z" fill="#FBFBFB"/>
<path d="M52.8555 43.732C52.8742 43.8659 52.8929 44.0018 52.9117 44.1357C52.8929 44.0018 52.8742 43.8678 52.8555 43.732Z" fill="#444652"/>
<path d="M43.8508 16.8741C43.8415 17.0175 43.8321 17.1627 43.8227 17.3061C43.834 17.1627 43.8415 17.0175 43.8508 16.8741Z" fill="#F9F9F9"/>
<path d="M40.1201 38.2243C40.0789 38.1979 40.0377 38.1733 39.9946 38.1469C39.9909 38.2148 39.9872 38.2846 39.9834 38.3525C40.0302 38.311 40.0752 38.2676 40.1201 38.2243Z" fill="#B7B7B8"/>
<path d="M46.8568 27.3257C46.5384 26.4637 46.22 25.5998 45.9054 24.7434C44.9465 25.579 45.0083 26.7806 45.1674 27.9538C45.3547 29.3439 45.602 30.7341 45.954 32.0903C46.0477 32.4543 46.574 32.8655 46.9691 32.9579C47.6452 33.1145 47.9486 32.5486 48.0797 31.9601C48.2745 31.0906 48.2839 30.1475 49.1135 29.5571C49.0667 29.3835 49.0742 29.1402 48.9618 29.0459C48.4693 28.6366 47.9411 28.2707 47.4242 27.8897C47.3512 27.8199 47.2782 27.7482 47.2032 27.6784L47.2407 27.6916C47.1115 27.5709 46.9841 27.4483 46.8568 27.3257Z" fill="#BFBFBF"/>
<path d="M47.4224 27.8897C47.9374 28.2707 48.4674 28.6366 48.96 29.0459C49.0742 29.1402 49.0648 29.3835 49.1117 29.5571C49.651 29.3307 50.1904 29.1044 50.8066 28.846C50.7822 29.0742 50.7654 29.244 50.7467 29.4137C51.0482 29.3458 51.3478 29.2798 51.6494 29.2119C51.7805 28.2782 51.9116 27.3464 52.0427 26.4127C51.5089 26.5523 51.1475 26.358 50.7429 25.9619C49.49 24.734 48.0292 23.8399 46.2612 23.557C46.7556 23.9984 47.2482 24.4416 47.5628 24.7227C47.4167 25.7054 47.295 26.5165 47.1733 27.3276C47.1939 27.4483 47.2163 27.569 47.2369 27.6916L47.1995 27.6784C47.2763 27.7482 47.3493 27.8199 47.4224 27.8897ZM49.9039 27.7463C49.2128 28.1009 48.7914 27.752 48.4562 27.1804C48.4768 26.7259 48.4992 26.2732 48.5198 25.8186C48.6266 25.7884 48.7315 25.7582 48.8382 25.728C49.3121 26.2034 49.8027 26.6636 50.2391 27.171C50.2859 27.2238 50.0237 27.5482 49.9039 27.7463Z" fill="#272A38"/>
<path d="M46.2631 23.557C48.031 23.8399 49.4919 24.734 50.7448 25.9619C51.1493 26.358 51.5108 26.5523 52.0445 26.4127C52.4978 24.6303 51.0426 24.2662 49.9882 23.6042C49.4937 23.4608 49.0012 23.3175 48.5067 23.176C48.3813 23.1609 48.2576 23.1439 48.1322 23.1269C47.2987 23.1269 46.4635 23.1269 45.63 23.1269C45.6263 23.2326 45.6226 23.3363 45.6169 23.4419C45.8323 23.4797 46.0477 23.5193 46.2631 23.557Z" fill="#BBBBBC"/>
<path d="M41.3674 21.1653C41.4536 21.237 41.506 21.2803 41.5585 21.3237C41.6016 21.2577 41.6577 21.1973 41.6821 21.1257C41.6914 21.0993 41.6072 21.0087 41.5922 21.0144C41.5248 21.0446 41.4667 21.0974 41.3674 21.1653Z" fill="#F9F9F9"/>
<path d="M47.2388 27.6916C47.2182 27.5709 47.1957 27.4502 47.1751 27.3276C47.0684 27.3276 46.9635 27.3257 46.8568 27.3257C46.9841 27.4483 47.1115 27.5709 47.2388 27.6916Z" fill="#F9F9F9"/>
<path d="M42.8826 39.2051C43.0455 39.2711 43.2085 39.3371 43.3714 39.4031C43.3414 39.3296 43.3096 39.2541 43.2796 39.1806C43.1467 39.1881 43.0137 39.1975 42.8826 39.2051Z" fill="#262A38"/>
<path d="M21.3093 27.652C21.3505 27.6576 21.3935 27.6614 21.4347 27.6671C21.4216 27.6558 21.4048 27.6312 21.3992 27.6331C21.3729 27.6444 21.3505 27.6633 21.3261 27.6784C21.3242 27.6765 21.3093 27.652 21.3093 27.652Z" fill="#262A38"/>
<path d="M12.7297 20.158C12.7503 20.1467 12.7728 20.1354 12.7934 20.1241C12.7747 20.1392 12.7578 20.1524 12.7391 20.1675L12.7297 20.158Z" fill="#2FA2EA"/>
<path d="M51.1475 37.0925C50.7673 39.4069 50.3852 41.7232 50.005 44.0376C51.0931 42.8568 51.6793 41.4987 51.5183 39.8502C51.4303 38.9448 51.4059 38.0337 51.3535 37.1246C51.2842 37.1152 51.2149 37.1038 51.1475 37.0925Z" fill="#2D303D"/>
<path d="M51.6175 45.8106C50.3421 46.3426 49.8009 47.082 49.8758 48.1948C51.2561 48.0477 50.7092 48.4589 51.6175 45.8106Z" fill="#303340"/>
<path d="M48.5067 23.176C49.0012 23.3193 49.4937 23.4608 49.9882 23.6042C49.6286 22.7308 49.0986 22.5781 48.5067 23.176Z" fill="#FDFDFD"/>
<path d="M51.1475 37.0925C51.2149 37.1038 51.2842 37.1133 51.3516 37.1246C51.3366 36.8756 51.3198 36.6266 51.3048 36.3776C51.2523 36.6172 51.1999 36.8549 51.1475 37.0925Z" fill="#F9F9F9"/>
<path d="M49.3402 20.3221C49.372 20.3636 49.4038 20.4051 49.4338 20.4466C49.4675 20.407 49.505 20.3712 49.5312 20.3278C49.5368 20.3184 49.4956 20.2599 49.4862 20.2618C49.4357 20.275 49.3889 20.3014 49.3402 20.3221Z" fill="#F9F9F9"/>
<path d="M49.9039 27.7463C50.0237 27.5482 50.2859 27.2257 50.2391 27.1729C49.8027 26.6655 49.3121 26.2053 48.8382 25.7299C48.7315 25.7601 48.6266 25.7903 48.5198 25.8205C48.4992 26.2751 48.4768 26.7277 48.4562 27.1823C48.561 26.6825 48.8307 26.69 49.1491 26.9767C49.4169 27.2144 49.6548 27.4879 49.9039 27.7463Z" fill="#1F6896"/>
<path d="M49.9039 27.7463C49.6529 27.4879 49.4169 27.2144 49.151 26.9748C48.8326 26.6881 48.5629 26.6806 48.458 27.1804C48.7914 27.752 49.2128 28.099 49.9039 27.7463Z" fill="#2C93D5"/>
<path d="M44.7236 39.9634L39.8411 38.2808L40.2119 37.5188L44.7236 39.9634Z" fill="#262938"/>
<path d="M48.4487 27.3068C48.1849 27.3068 47.9711 27.0915 47.9711 26.8258C47.9711 26.5602 48.1849 26.3448 48.4487 26.3448C48.7124 26.3448 48.9263 26.5602 48.9263 26.8258C48.9263 27.0915 48.7124 27.3068 48.4487 27.3068Z" fill="white"/>
<path d="M21.2418 27.5615H21.5808V27.6935H21.2418V27.5615Z" fill="white"/>
<path d="M53.7207 47.4196C53.7207 47.4196 52.5952 43.6358 52.6757 42.6682L52.6663 27.8255C52.6663 27.8255 52.6757 27.2842 53.4379 26.7919L53.7207 47.4196Z" fill="#262938"/>
</svg>
