<svg width="59" height="56" viewBox="0 0 59 56" fill="none" xmlns="http://www.w3.org/2000/svg">
<g clip-path="url(#clip0_482_52407)">
<path d="M19.2143 51.5993C20.8562 52.1969 22.5 52.7952 24.142 53.3928C24.4143 53.3675 24.6872 53.3404 24.9904 53.3122C24.9169 52.9503 24.8524 52.6457 24.7944 52.3396C24.0541 48.443 23.6986 44.5299 24.3193 40.5687C25.0782 35.7183 28.6201 31.5778 33.1017 30.4188C33.1186 32.0589 33.1225 33.6802 33.1649 35.2994C33.1739 35.6198 33.2343 36.0835 33.4436 36.2259C34.5746 37.0008 34.6063 38.0963 34.4929 39.2895C34.4158 40.0985 34.3595 40.921 34.4157 41.7304C34.5637 43.8537 33.5896 45.4623 32.2383 46.9516C32.0379 47.1738 31.9528 47.6868 32.0576 47.9738C32.7575 49.8785 33.8673 51.533 35.2651 52.9932C35.3922 53.1258 35.5516 53.23 35.7531 53.3936C35.7464 49.0916 36.6747 47.4503 39.8078 46.0976C40.3748 47.6007 40.3737 47.5983 39.1238 48.5846C38.1277 49.3722 37.1355 50.1652 36.1997 50.9126C36.5641 52.1894 38.486 52.8287 37.1544 54.554C38.3793 54.9998 39.4767 55.4073 40.5816 55.7994C41.3621 56.0754 42.0165 55.9804 42.5235 55.2115C43.5248 53.6871 44.8914 52.8838 46.7659 53.1767C46.9283 53.2016 47.1064 53.134 47.2874 53.1075C46.6704 51.2872 46.6898 49.4214 47.43 47.3604C48.9771 43.0438 50.5584 38.7377 52.1373 34.4327C52.2269 34.1863 52.3796 33.8544 52.5835 33.7761C53.3236 33.4895 54.0984 33.2937 54.8617 33.0637C54.883 33.0052 54.905 32.945 54.9263 32.8865C54.1542 31.0378 53.3711 29.2192 53.9648 27.1008C54.4821 25.2578 54.8732 23.3728 54.3263 21.4475C54.2883 21.3112 54.3155 21.1324 54.3675 20.9948C55.6799 17.4659 57.001 13.9402 58.3168 10.4126C58.3947 10.2041 58.4374 9.98279 58.5395 9.6145C56.4272 10.7526 54.474 11.8041 52.4653 12.8875C51.9831 11.2828 50.9725 9.9415 49.5982 9.01373C47.4942 7.59358 46.5558 5.71446 46.7477 3.20496C46.7492 3.1734 46.6733 3.13571 46.5542 3.03016C45.772 4.14451 44.9947 5.25064 44.2842 6.26066C43.2201 5.51003 42.2591 4.70059 41.1816 4.10167C39.4695 3.14929 38.6151 1.71827 38.4043 -0.18307C38.3718 -0.48797 38.2702 -0.783874 38.2002 -1.08435C37.5697 0.0290464 36.941 1.14308 36.2937 2.28647C35.6404 2.12096 34.9851 1.92261 34.3155 1.79127C27.9876 0.547975 22.1092 1.72241 16.6989 5.26317C14.5255 6.68413 12.1861 7.19762 9.65059 6.82075C8.82234 6.69794 8.00757 6.49974 7.09155 6.31689C7.16831 8.03896 7.79735 9.53049 8.54644 10.6703C7.3731 12.1582 6.12419 13.3937 5.31279 14.8728C4.48321 16.3854 4.08124 18.136 3.49201 19.7823C3.46351 19.9044 3.4326 20.0276 3.4041 20.1497C2.91665 23.2522 1.17937 24.9644 -1.95242 25.4263C-0.853759 25.9507 0.206663 26.5855 1.35423 26.959C2.0525 27.1871 2.22552 27.4729 2.30095 28.1527C3.37882 37.939 8.18517 45.2626 16.6904 50.1227C17.5323 50.6077 18.3708 51.1076 19.2143 51.5993ZM35.892 38.753C36.1652 38.9989 36.428 39.2572 36.7123 39.4891C37.1871 39.8767 37.6736 40.2485 38.1551 40.6285C37.0377 39.1097 35.9022 37.6025 34.8175 36.0595C34.5683 35.7039 34.3742 35.2297 34.3607 34.8013C34.2935 32.8338 34.2834 30.863 34.2963 28.8945C34.298 28.5559 34.4318 28.1389 34.652 27.8899C36.6724 25.6244 39.2363 24.2914 42.142 23.5745C42.138 23.4486 42.1349 23.2106 42.129 23.2105C41.5853 23.2093 41.0429 23.2267 40.4993 23.2416C40.1791 23.3438 39.8614 23.461 39.5351 23.547C37.1381 24.1861 35.1085 25.4145 33.5554 27.3763C33.3195 27.6739 33.2728 28.1145 33.0824 28.4567C32.9109 28.7637 32.7161 29.1785 32.4349 29.2829C26.9482 31.3306 23.8917 35.3366 23.1691 41.0894C22.8798 43.4009 22.9894 45.7612 22.9175 48.0996C22.9276 48.3622 22.9353 48.6259 22.9453 48.8885C22.8683 48.9248 22.7931 48.9616 22.7162 48.9978C21.3126 47.3509 20.3316 45.4301 19.6895 43.3558C17.803 37.2696 18.6397 31.5483 22.1226 26.0916C20.9671 26.8131 19.8122 27.5329 18.6567 28.2545C18.5891 28.1938 18.5233 28.1337 18.4563 28.0712C19.2044 26.8099 19.9513 25.5462 20.6994 24.2849C21.0756 23.651 21.4536 23.0178 21.8304 22.3822L21.8361 22.4103C20.4992 23.1703 19.1647 23.9291 17.7356 24.7397C18.1144 23.9783 18.429 23.2618 18.813 22.5846C21.7913 17.3477 26.0386 13.9196 32.1252 13.0658C36.7983 12.4102 41.2646 13.1827 45.6055 14.869C46.5798 15.2477 47.5173 15.7274 48.2732 16.0708C47.7156 17.4496 47.2067 18.7056 46.6995 19.9622C46.6416 20.0937 46.5832 20.227 46.5253 20.3585C46.0145 20.026 45.5037 19.6936 44.9929 19.3611C45.416 20.4164 46.0244 21.2802 46.4137 22.2368C46.819 23.2314 47.0106 24.3148 47.2965 25.3583C47.3547 25.3353 47.4172 25.3279 47.4791 25.3384C48.1736 23.8027 48.7736 22.2145 49.5806 20.7419C50.9891 18.1754 52.7712 15.8693 54.9069 13.8565C55.1215 13.6556 55.3601 13.1423 55.7458 13.6981C55.819 13.8473 55.9869 14.0268 55.9486 14.1373C55.6191 15.1194 55.2661 16.0949 54.8848 17.0601C54.8202 17.2213 54.585 17.3143 54.4284 17.438C53.4112 19.7454 52.3946 22.0511 51.3791 24.3592C51.3583 24.4821 51.3369 24.6068 51.3161 24.7297C51.9733 24.0957 52.6323 23.4624 53.2902 22.8267C53.2886 24.0907 53.1564 25.3353 52.8478 26.5337C52.4688 28.0076 52.4214 29.4356 52.8972 30.8773C53.0338 31.2904 53.1429 31.7135 53.2786 32.1784C52.7387 32.3914 52.2198 32.5959 51.7033 32.7994C50.0027 37.4936 48.3056 42.1892 46.5927 46.879C46.5024 47.1272 46.2906 47.3311 46.137 47.5562C46.0813 47.7969 46.0273 48.0382 45.9716 48.2788C45.9434 48.4111 45.9145 48.5451 45.8863 48.6774C45.7697 49.759 45.6555 50.8395 45.5273 52.0293C44.3628 51.8503 43.4518 52.2996 42.6291 53.2788C41.1741 55.0094 41.1105 54.9541 39.0314 54.0188C38.9834 53.9973 38.9575 53.9316 38.8906 53.8471C39.8682 51.9769 40.8528 50.0931 41.8381 48.2075C41.7092 47.8937 41.6152 47.5604 41.4459 47.2699C40.6487 45.8898 39.8299 44.5199 39.0208 43.1455C39.127 43.686 39.2326 44.2282 39.329 44.719C37.6098 46.3595 35.0522 47.1769 34.5934 50.0529C34.0602 49.333 33.5737 48.616 33.3268 47.8215C33.2396 47.5409 33.7308 47.0673 33.9778 46.6955C34.3228 46.1747 34.6841 45.6639 35.039 45.1488C35.2104 44.2617 35.4492 43.3811 35.536 42.4854C35.6554 41.2703 35.6596 40.0433 35.7139 38.8206C35.7407 38.7581 35.7681 38.6938 35.7948 38.6313C35.832 38.6769 35.8617 38.7158 35.892 38.753ZM35.5245 5.73601C35.8594 5.15536 36.1861 4.56973 36.5298 3.99228C36.8822 3.40194 37.2527 2.82219 37.7431 2.03319C38.5243 4.09796 40.1946 4.82032 41.5892 5.84579C42.0187 6.13862 42.46 6.41566 42.8741 6.72897C43.6177 7.29266 43.8756 7.97469 43.2893 8.8191C43.3065 8.97992 43.3219 9.1401 43.3476 9.37626C44.1524 8.2601 44.8967 7.22827 45.7906 5.98794C46.3306 7.84451 47.469 8.81284 48.6625 9.79926C49.5539 10.5372 50.3315 11.4726 50.962 12.4508C51.6793 13.563 51.5268 13.7905 50.3074 14.4466C49.787 15.5479 49.0318 15.1365 48.2836 14.7719C43.754 12.5692 38.9955 11.3511 33.9307 11.6535C27.4945 12.0388 22.4388 14.8515 18.9319 20.4179C17.3881 22.8689 16.5508 25.5911 15.5584 28.2629C16.5265 27.3226 17.4946 26.3823 18.462 25.4437C18.5019 25.4763 18.5419 25.5089 18.5818 25.5415C17.9328 27.3246 17.2838 29.1077 16.6348 30.8908C16.7062 30.9248 16.7775 30.9588 16.8488 30.9928C17.2807 30.6441 17.7132 30.2937 18.145 29.9451C18.6314 29.4958 19.1189 29.049 19.7552 28.4616C15.8831 37.1288 17.0661 44.7535 23.3043 51.6588C10.4891 47.6448 3.7858 37.2261 3.55861 27.6269C5.02787 27.2042 6.44809 26.7957 7.86591 26.3884C7.50056 26.3518 7.13721 26.2878 6.77274 26.2816C5.61992 26.2675 4.46388 26.3225 3.31616 26.256C2.70356 26.2197 2.10091 25.9863 1.2354 25.7797C3.39454 24.2391 4.13314 22.1715 4.79484 20.0578C5.05545 17.1076 6.4284 14.7208 8.4744 12.6533C9.14971 11.9698 9.76522 11.7462 10.5528 12.4463C10.774 12.6433 11.1169 12.6978 11.4057 12.819C10.796 11.9969 10.1362 11.2088 9.59429 10.3431C9.14805 9.63068 8.84265 8.82702 8.35027 7.80877C12.2842 8.69665 15.4037 7.60597 18.4255 5.64471C21.301 3.77875 24.5234 2.75566 27.9844 2.6705C28.1602 2.62007 28.3437 2.51021 28.5128 2.52759C30.6993 2.73528 32.888 2.9478 35.0724 3.18883C35.7508 3.26315 36.0404 3.63951 35.8026 4.36391C35.6545 4.80378 35.6121 5.27613 35.5245 5.73601ZM38.4303 52.1601C38.1504 51.741 37.9727 51.4736 37.7688 51.1686C38.3526 50.7146 38.875 50.3086 39.3951 49.9037C39.4459 49.9503 39.496 49.9987 39.5468 50.0453C39.2071 50.6884 38.8674 51.3316 38.4303 52.1601Z" fill="#262A38"/>
<path d="M46.6999 19.9664C47.2089 18.7104 47.7161 17.4538 48.2737 16.075C47.5178 15.7316 46.5803 15.2519 45.606 14.8732C41.2633 13.1862 36.7988 12.4144 32.1256 13.07C26.0408 13.9244 21.7918 17.3519 18.8135 22.5888C18.4301 23.2642 18.1155 23.9807 17.7361 24.7439C19.1634 23.9326 20.5003 23.1727 21.8366 22.4145C21.8646 22.4087 21.8922 22.3986 21.9207 22.397C21.9266 22.3971 21.9365 22.4248 21.9425 22.441C21.9057 22.4216 21.8665 22.4033 21.8298 22.3839C21.4536 23.0178 21.0756 23.651 20.6988 24.2867C19.9507 25.548 19.2037 26.8117 18.4557 28.0729C18.5233 28.1337 18.5891 28.1938 18.656 28.2563C19.8115 27.5347 20.9664 26.8149 22.1219 26.0933C18.6397 31.5483 17.8023 37.2713 19.6888 43.3575C20.3327 45.4325 21.312 47.3526 22.7155 48.9996C22.7925 48.9634 22.8677 48.9265 22.9447 48.8903C22.9346 48.6277 22.927 48.364 22.9169 48.1014C22.7238 47.734 22.418 47.3859 22.3559 46.9979C22.0284 44.9297 21.5405 42.8532 21.5175 40.7754C21.464 35.9284 23.1138 31.6311 26.5743 28.2016C30.267 24.5395 34.9216 23.1846 39.9824 23.0354C40.1516 23.0307 40.3253 23.1722 40.4963 23.2445C41.0398 23.2296 41.5823 23.2122 42.126 23.2134C42.1319 23.2135 42.1349 23.4515 42.1389 23.5774C41.7115 23.9196 41.3015 24.2903 40.8529 24.6028C38.3006 26.3695 35.9228 28.2862 35.8268 31.7479C35.7872 33.1707 35.8009 34.6611 36.1846 36.0051C36.5344 37.2344 37.4328 38.2981 38.0539 39.4555C38.2663 39.852 38.3721 40.306 38.5273 40.7338C38.5303 40.8132 38.5344 40.895 38.5374 40.9744C38.7553 41.1862 38.9726 41.3997 39.1905 41.6115C39.46 41.9826 39.7295 42.3537 39.9997 42.723C42.965 42.7404 44.7156 40.8163 46.2241 38.6375C47.2186 37.2029 48.0062 35.6249 48.8863 34.1105C48.9619 33.9574 49.0365 33.8019 49.1368 33.5975C48.4694 33.6296 47.8851 33.6578 47.3009 33.686C46.3211 33.9577 45.9879 34.8401 45.5075 35.5906C45.183 36.0987 44.702 36.5278 44.1226 36.1483C43.7829 35.9263 43.4301 35.3624 43.4655 34.9858C43.6002 33.5916 43.8434 32.2008 44.1411 30.8298C44.3928 29.6729 44.7463 28.5209 45.9325 28.0654C45.9353 28.9777 45.9396 29.8966 45.9434 30.8173C46.0437 30.8538 46.1416 30.8915 46.2419 30.928C46.6337 30.2075 47.0244 29.4845 47.4989 28.6135C47.2993 28.2417 46.9863 27.6561 46.6744 27.0729C46.4849 26.9638 46.2979 26.8535 46.1084 26.7444C46.148 26.6464 46.187 26.5502 46.2284 26.4529C47.0116 26.7379 47.7965 27.0236 48.5797 27.3087C48.467 27.0268 48.3985 26.7168 48.2301 26.4729C48.047 26.2095 47.773 26.0094 47.539 25.7817C47.4559 25.6431 47.3728 25.5045 47.2922 25.3647C47.0063 24.3213 46.8129 23.2372 46.4093 22.2432C46.0201 21.2866 45.4141 20.4217 44.9886 19.3676C45.4994 19.7 46.0102 20.0325 46.521 20.3649C46.5854 20.2318 46.6421 20.0979 46.6999 19.9664ZM42.8986 23.1494C43.0158 23.1177 43.0878 23.0897 43.1608 23.0862C43.175 23.0854 43.2233 23.1993 43.2072 23.2215C43.1598 23.2806 43.0864 23.3181 43.0233 23.3654C42.9895 23.3049 42.9533 23.2455 42.8986 23.1494Z" fill="#FDFDFD"/>
<path d="M7.86303 26.3854C6.44521 26.7927 5.02676 27.2018 3.55574 27.6238C3.78293 37.223 10.4862 47.6417 23.3014 51.6557C17.0632 44.7504 15.8796 37.1275 19.7523 28.4586C19.1142 29.0453 18.6285 29.4928 18.1421 29.942C18.1946 30.0333 18.3164 30.164 18.2889 30.2122C17.2883 32.0359 16.2731 33.8504 15.2297 35.7207C14.6934 33.2132 14.7523 30.7295 15.5549 28.2616C16.5473 25.5899 17.384 22.8694 18.9284 20.4166C22.4346 14.852 27.4909 12.0375 33.9272 11.6522C38.9919 11.3498 43.7511 12.5662 48.2801 14.7706C49.0283 15.1353 49.7834 15.5466 50.3039 14.4453C49.5003 12.798 48.4875 11.3314 46.9203 10.2491C46.7769 10.9717 46.6971 11.5248 46.5539 12.0608C46.3697 12.7585 45.8902 12.8931 45.348 12.499C44.0746 11.5679 42.7702 10.6615 41.6018 9.60598C40.7077 8.79882 40.0226 7.7626 39.1998 6.86899C38.893 6.53453 38.4643 6.31624 38.0405 6.00745C37.8943 6.82538 37.8509 7.45391 37.6601 8.03283C37.3431 8.99135 37.1074 9.04205 36.2418 8.49617C34.5567 7.43119 32.7137 6.83267 30.7478 6.54467C27.8703 6.12163 25.2712 7.05846 22.6969 8.16286C19.7651 9.42222 16.7391 10.2177 13.5199 10.0436C13.2932 10.0314 13.0622 10.0858 12.5965 10.1331C13.0658 10.607 13.3321 11.0251 13.7121 11.2296C14.5555 11.6831 15.4578 12.0296 16.3357 12.4214C16.3584 12.4136 16.3788 12.407 16.4015 12.3992C16.3783 12.4028 16.3533 12.4057 16.3301 12.4093C13.7406 13.725 11.4314 15.3876 9.57637 17.6752C8.31012 19.2376 6.96804 21.7039 6.85036 23.0019C8.44274 21.1567 10.3247 19.9066 12.8423 19.5223C10.1727 27.5031 9.14759 35.2534 13.6642 43.0335C13.2456 42.7326 13.0326 42.6169 12.8648 42.4535C10.0022 39.6352 8.45335 36.1368 7.76873 32.2243C7.443 30.3595 7.42958 28.4798 8.13712 26.6618C8.2543 26.3672 8.31452 26.1141 7.86303 26.3854Z" fill="#1F6A99"/>
<path d="M16.3381 12.4203C15.4596 12.0303 14.5597 11.6827 13.7145 11.2285C13.3345 11.024 13.0664 10.6052 12.5989 10.132C13.0646 10.0847 13.2956 10.0303 13.5223 10.0425C16.7415 10.2166 19.7658 9.42044 22.6993 8.16172C25.2743 7.05555 27.8727 6.12049 30.7502 6.54353C32.7155 6.8333 34.5608 7.43069 36.2442 8.49503C37.1081 9.04028 37.3455 8.99021 37.6625 8.03169C37.8533 7.45278 37.8949 6.82361 38.0429 6.00632C38.4667 6.3151 38.8948 6.53516 39.2022 6.86785C40.0243 7.76323 40.7095 8.79946 41.6042 9.60484C42.7732 10.6586 44.077 11.5667 45.3504 12.4979C45.8902 12.8931 46.3703 12.7567 46.5563 12.0596C46.6978 11.523 46.7786 10.9723 46.9227 10.2479C48.4899 11.3302 49.5028 12.7968 50.3063 14.4442C51.5257 13.788 51.6758 13.5617 50.9609 12.4484C50.3322 11.4708 49.5528 10.5348 48.6614 9.79685C47.4702 8.8093 46.3301 7.84033 45.7895 5.98553C44.8956 7.22586 44.1513 8.25768 43.3465 9.37385C43.3219 9.1401 43.3054 8.9775 43.2899 8.81732C42.7238 7.82643 42.1559 6.83491 41.5898 5.84402C40.1952 4.81855 38.5249 4.09618 37.7438 2.03142C37.2533 2.82041 36.8829 3.40017 36.5305 3.99051C36.1856 4.56555 35.8589 5.15117 35.5251 5.73423C33.9364 4.95728 32.3719 4.12489 30.75 3.42819C29.8793 3.05508 28.9088 2.91259 27.984 2.66631C24.5229 2.75148 21.2987 3.77392 18.425 5.64053C15.4032 7.60178 12.2844 8.69068 8.3498 7.80458C8.84153 8.8246 9.14757 9.6265 9.59381 10.3389C10.1357 11.2046 10.7956 11.9927 11.4052 12.8148C11.1832 13.025 10.9601 13.2329 10.738 13.4431C9.29596 14.8151 7.80085 16.1357 6.43434 17.5794C5.76425 18.2869 5.33234 19.2217 4.79372 20.0554C4.13203 22.1691 3.39342 24.2367 1.23428 25.7773C2.10155 25.9845 2.70244 26.2173 3.31505 26.2536C4.46453 26.3207 5.6188 26.2651 6.77162 26.2792C7.13673 26.2836 7.50009 26.3476 7.86479 26.386C8.31564 26.1165 8.25606 26.3679 8.14064 26.6631C7.4331 28.4811 7.44476 30.3601 7.77225 32.2256C8.45687 36.1381 10.0075 39.6371 12.8683 42.4548C13.0354 42.62 13.2508 42.7345 13.6677 43.0348C9.15111 35.2547 10.1763 27.5043 12.8458 19.5235C10.3282 19.9079 8.44626 21.158 6.85388 23.0032C6.9698 21.7045 8.31429 19.2371 9.57989 17.6764C11.4349 15.3889 13.7441 13.7263 16.3336 12.4106L16.3381 12.4203Z" fill="#2FA2EA"/>
<path d="M47.5456 25.7801C47.7796 26.0078 48.0542 26.2061 48.2367 26.4713C48.4039 26.7128 48.4736 27.0252 48.5862 27.307C48.6983 27.3659 48.8093 27.4224 48.9214 27.4812C49.6821 27.1218 50.1272 27.4484 50.1671 28.3903C50.9315 29.373 52.1737 30.2146 51.1389 31.7328C50.6963 32.5653 50.2544 33.3961 49.8119 34.2286C49.7414 34.5703 49.7329 34.9385 49.5932 35.251C48.7567 37.1224 47.8908 38.9812 47.0349 40.8455C46.9638 41.0846 46.8945 41.3243 46.8234 41.5634C46.5617 42.4357 46.273 43.3001 46.046 44.181C45.6336 45.7852 44.62 46.8615 43.1919 47.5983C42.7423 47.804 42.2927 48.0097 41.8432 48.2154C40.8579 50.101 39.8733 51.9847 38.8957 53.855C38.9626 53.9395 38.9903 54.0058 39.0365 54.0266C41.1156 54.962 41.1798 55.0155 42.6342 53.2867C43.4569 52.3075 44.369 51.8606 45.5324 52.0372C45.6606 50.8474 45.7748 49.7669 45.8914 48.6852C45.9196 48.553 45.9485 48.419 45.9767 48.2867C46.0324 48.0461 46.0864 47.8047 46.1421 47.5641C46.146 47.4712 46.1253 47.3693 46.1532 47.2871C47.8415 42.6265 49.5323 37.9648 51.2382 33.3106C51.3105 33.112 51.5475 32.9755 51.7078 32.809C52.2249 32.6038 52.7432 32.401 53.2831 32.1881C53.1474 31.7231 53.0383 31.3001 52.9016 30.887C52.4259 29.4452 52.4739 28.0155 52.8523 26.5434C53.1609 25.3449 53.293 24.1003 53.2947 22.8364C52.6374 23.4703 51.9784 24.1036 51.3205 24.7393C51.2149 24.7009 51.1111 24.6631 51.0055 24.6247C51.1319 24.5402 51.2572 24.4533 51.3836 24.3689C52.4008 22.0614 53.4174 19.7557 54.4329 17.4476C54.8722 16.2024 55.3103 14.9548 55.7496 13.7096C55.3633 13.1555 55.1235 13.6664 54.9107 13.8679C52.775 15.8807 50.9929 18.1868 49.5844 20.7533C48.7756 22.2253 48.1757 23.8135 47.4829 25.3498C47.502 25.4892 47.5243 25.6359 47.5456 25.7801ZM44.1014 49.8142C42.3421 51.992 42.9948 51.792 41.6492 51.4588C41.9619 50.3863 42.7216 49.876 44.1014 49.8142ZM50.6789 25.0839C50.7318 25.0811 50.7848 25.0723 50.8362 25.0789C50.8456 25.0804 50.8667 25.1483 50.8558 25.1563C50.8164 25.1881 50.7689 25.209 50.7237 25.2347C50.7104 25.1837 50.6946 25.1338 50.6789 25.0839Z" fill="#FEFEFE"/>
<path d="M40.5004 23.244C40.3294 23.1717 40.1564 23.0284 39.9866 23.0349C34.924 23.1835 30.2712 24.539 26.5785 28.2011C23.118 31.6306 21.4676 35.9297 21.5217 40.7749C21.5441 42.8545 22.0326 44.9292 22.3601 46.9974C22.4221 47.3854 22.7273 47.7353 22.9211 48.1009C22.9929 45.7625 22.8816 43.4015 23.1726 41.0907C23.8946 35.3397 26.9517 31.3319 32.4385 29.2842C32.7196 29.1798 32.9151 28.7632 33.086 28.458C33.2781 28.1164 33.3231 27.6752 33.5589 27.3776C35.1138 25.4164 37.1416 24.1873 39.5387 23.5483C39.8625 23.4635 40.1802 23.3462 40.5004 23.244Z" fill="#BDBDBD"/>
<path d="M47.0337 40.8431C47.889 38.9805 48.7549 37.1218 49.5921 35.2486C49.7311 34.9379 49.742 34.5685 49.8108 34.2262C49.5042 34.1869 49.2001 34.1464 48.8935 34.1071C48.0135 35.6215 47.2258 37.1995 46.2314 38.6341C44.7228 40.8129 42.9715 42.7388 40.0069 42.7196C39.6056 42.7542 39.2044 42.7888 38.6736 42.8345C38.862 43.0014 38.9446 43.0756 39.0272 43.1498C39.837 44.5225 40.6558 45.8924 41.4523 47.2743C41.6199 47.5641 41.7156 47.898 41.8445 48.2119C42.294 48.0062 42.7436 47.8005 43.1932 47.5948C44.342 45.55 45.4932 43.5041 46.6421 41.4593C46.772 41.2556 46.9025 41.0502 47.0337 40.8431Z" fill="#BDBDBD"/>
<path d="M38.5322 40.7316C38.377 40.3037 38.2711 39.8497 38.0587 39.4532C37.437 38.2976 36.5392 37.2321 36.1894 36.0028C35.8057 34.6588 35.7927 33.1667 35.8316 31.7456C35.9259 28.2833 38.306 26.3655 40.8577 24.6005C41.3074 24.2904 41.7156 23.9191 42.1438 23.5751C39.237 24.2896 36.673 25.6226 34.6538 27.8905C34.4324 28.1372 34.3004 28.5548 34.2981 28.8952C34.2845 30.8654 34.2953 32.8344 34.3625 34.8019C34.3766 35.2286 34.5701 35.7045 34.8193 36.0602C35.904 37.6031 37.0401 39.1086 38.1569 40.6291L38.1524 40.6194C38.2782 40.6572 38.4064 40.6938 38.5322 40.7316Z" fill="#BCBCBC"/>
<path d="M39.0259 43.1534C38.9433 43.0792 38.8589 43.0043 38.6723 42.838C39.2031 42.7924 39.6044 42.7577 40.0056 42.7231C39.7361 42.352 39.4666 41.981 39.1964 41.6116C38.897 41.5689 38.5587 41.6004 38.3083 41.467C37.7215 41.1571 37.1774 40.7684 36.4959 40.3357C36.4669 40.8972 36.4643 41.2656 36.4233 41.6301C36.2778 42.928 36.1662 44.2423 35.0452 45.1591C34.6903 45.6742 34.3279 46.1826 33.984 46.7058C33.7388 47.0783 33.2452 47.553 33.333 47.8318C33.58 48.6263 34.0664 49.3433 34.5996 50.0632C35.0573 47.1848 37.6167 46.368 39.3352 44.7293C39.2383 44.2344 39.1321 43.6939 39.0259 43.1534Z" fill="#F9F9F9"/>
<path d="M15.5549 28.2616C14.7523 30.7295 14.6952 33.2138 15.2297 35.7207C16.2731 33.8504 17.2865 32.0353 18.2889 30.2122C18.3147 30.1634 18.1946 30.0333 18.1421 29.942C17.7103 30.2907 17.2778 30.6411 16.846 30.9897C16.7746 30.9557 16.7033 30.9218 16.632 30.8878C17.281 29.1047 17.93 27.3216 18.5789 25.5385C18.539 25.5059 18.4991 25.4732 18.4591 25.4406C17.491 26.381 16.523 27.3213 15.5549 28.2616Z" fill="#2FA0E7"/>
<path d="M4.78956 20.0559C5.3293 19.2246 5.76008 18.2874 6.43017 17.5798C7.79668 16.1362 9.2918 14.8156 10.7339 13.4436C10.9559 13.2334 11.179 13.0255 11.401 12.8153C11.114 12.6948 10.7694 12.6396 10.5481 12.4426C9.76059 11.7425 9.14443 11.9678 8.46977 12.6496C6.42313 14.7189 5.05018 17.1057 4.78956 20.0559Z" fill="#1F6998"/>
<path d="M27.9809 2.66922C28.9057 2.9155 29.8769 3.05622 30.747 3.4311C32.3689 4.1278 33.9351 4.96083 35.522 5.73714C35.6115 5.27791 35.6527 4.80314 35.7967 4.36376C36.0345 3.63936 35.7449 3.263 35.0664 3.18868C32.8827 2.94588 30.6958 2.734 28.5069 2.52744C28.3402 2.50893 28.1574 2.61702 27.9809 2.66922Z" fill="#1F6998"/>
<path d="M35.0441 45.1567C36.165 44.2398 36.2784 42.9262 36.4222 41.6276C36.4632 41.2632 36.464 40.8941 36.4947 40.3333C37.1745 40.7654 37.7204 41.1547 38.3072 41.4646C38.5594 41.5986 38.8977 41.5672 39.1953 41.6092C38.9774 41.3974 38.7601 41.1839 38.5423 40.9721C38.4117 40.8543 38.2812 40.7366 38.1507 40.6188L38.1551 40.6285C37.6729 40.2502 37.1864 39.8784 36.7123 39.4891C36.428 39.2572 36.1652 38.9989 35.892 38.753C35.835 38.7783 35.7761 38.8031 35.719 38.8285C35.6653 40.0494 35.6612 41.2764 35.5411 42.4933C35.4543 43.389 35.2155 44.2696 35.0441 45.1567Z" fill="#B7B7B8"/>
<path d="M51.706 32.8084C51.5458 32.9749 51.3105 33.112 51.2365 33.3099C49.5305 37.9641 47.8398 42.6259 46.1514 47.2865C46.1211 47.3698 46.1418 47.4717 46.1403 47.5634C46.2957 47.339 46.5057 47.1344 46.5961 46.8863C48.309 42.1965 50.0061 37.5009 51.706 32.8084Z" fill="#444652"/>
<path d="M41.5892 5.84579C42.1553 6.83668 42.7232 7.82821 43.2893 8.8191C43.8739 7.97405 43.6177 7.29266 42.8741 6.72897C42.4582 6.41502 42.0163 6.13975 41.5892 5.84579Z" fill="#1F6896"/>
<path d="M55.7497 13.7036C55.3105 14.9488 54.8723 16.1964 54.4331 17.4417C54.5897 17.318 54.8248 17.2249 54.8895 17.0638C55.2718 16.101 55.6231 15.1248 55.9533 14.141C55.9891 14.0316 55.8213 13.8521 55.7497 13.7036Z" fill="#181B29"/>
<path d="M38.4303 52.1601C38.8674 51.3316 39.2071 50.6884 39.5475 50.0435C39.4967 49.9969 39.4465 49.9486 39.3957 49.902C38.8733 50.308 38.3532 50.7128 37.7694 51.1668C37.972 51.4754 38.1504 51.741 38.4303 52.1601Z" fill="#E9E9EA"/>
<path d="M51.3814 24.364C51.255 24.4485 51.1297 24.5354 51.0033 24.6198C51.1089 24.6583 51.2127 24.6961 51.3183 24.7345C51.3391 24.6116 51.3606 24.4869 51.3814 24.364Z" fill="#F9F9F9"/>
<path d="M47.5456 25.7801C47.5243 25.6359 47.502 25.4892 47.4807 25.345C47.4188 25.3345 47.3569 25.3401 47.2981 25.3649C47.3812 25.5035 47.4625 25.6415 47.5456 25.7801Z" fill="#F9F9F9"/>
<path d="M3.48848 19.781C3.3853 19.8017 3.28147 19.8241 3.18005 19.8454C3.25297 19.9462 3.32765 20.0477 3.39993 20.1502C3.42908 20.0264 3.45822 19.9025 3.48848 19.781Z" fill="#FBFBFB"/>
<path d="M45.9756 48.2843C45.9474 48.4166 45.9185 48.5506 45.8903 48.6828C45.9185 48.5506 45.9467 48.4183 45.9756 48.2843Z" fill="#444652"/>
<path d="M46.6999 19.9664C46.6421 20.0979 46.5836 20.2312 46.5258 20.3627C46.5854 20.2318 46.6421 20.0979 46.6999 19.9664Z" fill="#F9F9F9"/>
<path d="M35.892 38.753C35.8623 38.714 35.832 38.6769 35.8006 38.6374C35.7738 38.6999 35.7464 38.7642 35.7197 38.8267C35.7779 38.8037 35.835 38.7783 35.892 38.753Z" fill="#B7B7B8"/>
<path d="M45.9499 30.8157C45.9456 29.8968 45.9418 28.9761 45.9391 28.0638C44.7522 28.521 44.3993 29.6712 44.1477 30.8282C43.8482 32.1985 43.6051 33.5894 43.4721 34.9842C43.4356 35.3583 43.7895 35.9247 44.1292 36.1467C44.711 36.5251 45.1896 36.0971 45.5141 35.5889C45.9945 34.8384 46.3259 33.9554 47.3074 33.6844C47.3228 33.5053 47.413 33.2792 47.3397 33.1522C47.0168 32.5991 46.6457 32.0746 46.2903 31.5398C46.2455 31.4492 46.2014 31.3569 46.1549 31.2657L46.1856 31.2909C46.1054 31.1332 46.0277 30.9745 45.9499 30.8157Z" fill="#BFBFBF"/>
<path d="M46.2885 31.5391C46.6422 32.0733 47.0151 32.5984 47.3379 33.1515C47.413 33.2792 47.321 33.5047 47.3057 33.6838C47.8899 33.6555 48.4742 33.6273 49.1416 33.5952C49.0406 33.8014 48.9667 33.9551 48.8911 34.1082C49.1977 34.1476 49.5018 34.188 49.8084 34.2273C50.2509 33.3948 50.6928 32.564 51.1353 31.7315C50.586 31.6801 50.3128 31.3739 50.0681 30.8633C49.3108 29.2809 48.2438 27.9412 46.6792 27.0706C46.9929 27.6545 47.3041 28.2395 47.5037 28.6112C47.0303 29.4847 46.6385 30.2052 46.2467 30.9257C46.2248 31.0462 46.2046 31.1673 46.182 31.2896L46.1513 31.2644C46.1996 31.3562 46.2438 31.4486 46.2885 31.5391ZM48.6694 32.2531C47.8987 32.35 47.6221 31.878 47.5026 31.2262C47.6774 30.8061 47.8533 30.3884 48.0282 29.9683C48.1388 29.9765 48.2477 29.984 48.3583 29.9921C48.641 30.6008 48.9447 31.2012 49.1812 31.8272C49.2071 31.8928 48.8498 32.108 48.6694 32.2531Z" fill="#272A38"/>
<path d="M46.681 27.0713C48.2456 27.9418 49.3125 29.2816 50.0699 30.864C50.3146 31.3746 50.5878 31.6808 51.1371 31.7322C52.1726 30.2122 50.9297 29.3724 50.1653 28.3896C49.7497 28.0858 49.3359 27.7826 48.9197 27.4806C48.8069 27.4235 48.6966 27.3653 48.5845 27.3064C47.8013 27.0214 47.0164 26.7357 46.2332 26.4506C46.1936 26.5486 46.1546 26.6448 46.1132 26.7421C46.3027 26.8513 46.4915 26.9621 46.681 27.0713Z" fill="#BBBBBC"/>
<path d="M42.8986 23.1494C42.9551 23.2462 42.9895 23.3049 43.024 23.3636C43.087 23.3163 43.1605 23.2788 43.2078 23.2198C43.2257 23.1981 43.1775 23.0842 43.1614 23.0844C43.0878 23.0897 43.0151 23.1195 42.8986 23.1494Z" fill="#F9F9F9"/>
<path d="M46.1838 31.2902C46.2057 31.1697 46.2259 31.0486 46.2485 30.9264C46.1482 30.8899 46.0502 30.8522 45.9499 30.8157C46.0277 30.9745 46.1054 31.1332 46.1838 31.2902Z" fill="#F9F9F9"/>
<path d="M38.1524 40.6194C38.2829 40.7372 38.4135 40.855 38.544 40.9727C38.541 40.8934 38.5369 40.8116 38.5339 40.7322C38.4064 40.6938 38.2782 40.6572 38.1524 40.6194Z" fill="#262A38"/>
<path d="M21.8315 22.3846C21.8683 22.404 21.9075 22.4223 21.9443 22.4417C21.9358 22.4266 21.9284 22.3977 21.9224 22.3976C21.8939 22.3993 21.8664 22.4093 21.8383 22.4152C21.8372 22.4127 21.8315 22.3846 21.8315 22.3846Z" fill="#262A38"/>
<path d="M16.3325 12.4082C16.3557 12.4046 16.3807 12.4017 16.4039 12.3981C16.3812 12.4058 16.3608 12.4125 16.3381 12.4203C16.3381 12.4203 16.3325 12.4082 16.3325 12.4082Z" fill="#2FA2EA"/>
<path d="M46.6414 41.461C45.4926 43.5058 44.3413 45.5517 43.1925 47.5965C44.6189 46.8591 45.6342 45.7834 46.0467 44.1792C46.2736 43.2983 46.5624 42.4339 46.824 41.5616C46.7621 41.5291 46.7009 41.4947 46.6414 41.461Z" fill="#2D303D"/>
<path d="M44.1014 49.8142C42.7209 49.8778 41.9594 50.3875 41.6492 51.4588C42.9966 51.7927 42.3421 51.992 44.1014 49.8142Z" fill="#303340"/>
<path d="M48.9197 27.4806C49.3353 27.7844 49.7497 28.0858 50.1653 28.3896C50.1261 27.446 49.6803 27.1211 48.9197 27.4806Z" fill="#FDFDFD"/>
<path d="M46.6414 41.461C46.7009 41.4947 46.7628 41.5273 46.8223 41.561C46.8933 41.3219 46.9627 41.0822 47.0337 40.8431C46.9025 41.0502 46.772 41.2556 46.6414 41.461Z" fill="#F9F9F9"/>
<path d="M50.6789 25.0839C50.6946 25.1338 50.7104 25.1837 50.7243 25.2329C50.7696 25.2072 50.817 25.1864 50.8565 25.1546C50.865 25.1476 50.8463 25.0786 50.8368 25.0771C50.7848 25.0723 50.7318 25.0811 50.6789 25.0839Z" fill="#F9F9F9"/>
<path d="M48.6694 32.2531C48.8498 32.108 49.2065 31.8946 49.1806 31.829C48.944 31.2029 48.6404 30.6026 48.3577 29.9939C48.247 29.9857 48.1382 29.9782 48.0275 29.9701C47.8527 30.3902 47.6767 30.8079 47.5019 31.228C47.7714 30.7942 48.0223 30.8935 48.2234 31.2718C48.3938 31.5868 48.5237 31.9251 48.6694 32.2531Z" fill="#1F6896"/>
<path d="M48.6694 32.2531C48.522 31.9245 48.3938 31.5868 48.2258 31.2707C48.0247 30.8924 47.7738 30.7931 47.5043 31.2269C47.6221 31.878 47.8994 32.3482 48.6694 32.2531Z" fill="#2C93D5"/>
<path d="M39.6231 41.9616L35.6105 38.7107L36.2195 38.1214L39.6231 41.9616Z" fill="#262938"/>
<path d="M47.4523 31.3424C47.2044 31.2522 47.0772 30.9767 47.168 30.7271C47.2589 30.4775 47.5335 30.3483 47.7813 30.4385C48.0292 30.5287 48.1564 30.8042 48.0656 31.0538C47.9747 31.3034 47.7001 31.4327 47.4523 31.3424Z" fill="white"/>
<path d="M21.7991 22.2764L22.1177 22.3924L22.0725 22.5164L21.754 22.4005L21.7991 22.2764Z" fill="white"/>
<path d="M45.5274 52.0454C45.5274 52.0454 45.7639 48.1049 46.1705 47.2231L51.2382 33.2724C51.2382 33.2724 51.4321 32.7669 52.3168 32.565L45.5274 52.0454Z" fill="#262938"/>
</g>
<defs>
<clipPath id="clip0_482_52407">
<rect width="59" height="56" fill="white" transform="matrix(-1 0 0 1 59 0)"/>
</clipPath>
</defs>
</svg>
