<svg id="Слой_1" data-name="Слой 1" xmlns="http://www.w3.org/2000/svg" viewBox="0 0 755.03 749.07"><defs><style>.cls-1{fill:#262a38;}.cls-2{fill:#fdfdfd;}.cls-3{fill:#1f6a99;}.cls-4{fill:#2fa2ea;}.cls-5{fill:#fefefe;}.cls-6{fill:#bdbdbd;}.cls-7{fill:#bcbcbc;}.cls-8{fill:#f9f9f9;}.cls-9{fill:#2fa0e7;}.cls-10{fill:#1f6998;}.cls-11{fill:#b7b7b8;}.cls-12{fill:#444652;}.cls-13{fill:#1f6896;}.cls-14{fill:#181b29;}.cls-15{fill:#e9e9ea;}.cls-16{fill:#bfbfbf;}.cls-17{fill:#272a38;}.cls-18{fill:#2d303d;}.cls-19{fill:#303340;}.cls-20{fill:#2c93d5;}</style></defs><path class="cls-1" d="M184.74,510.4c57.82-42.64,26-89,60.82-139.61,1.42-2,.66-5.59.66-8.45,0-52.06,0-104.12,0-158.89l61.88,68.72c17.47-21.64,42-32.68,68.65-40.32,20.92-6,34.41-20.28,42.76-39.87,2.29-5.38,4.21-10.91,8.94-16.9,4.78,17.38,9.57,34.76,14,50.9,20.19-5,40.4-9.76,60.53-14.91,18.19-4.66,30.91-16.46,40.28-32.23,3.13-5.26,5.89-10.75,11.35-15.83,2.36,16.5,4.71,33,6.72,47.07,94.89,17.53,168.44,41.57,228.29,121.66,33,44.39,71,61.12,124.15,65.82-9,21.38-23.55,37.14-41.75,50.51,28.09,42.65,32.51,88.87,24.6,137.41-5.35,37.35,2.65,79.45,43.11,93.49l-.63,3.86c-16.23.48-32.53,2-48.68,1-8.66-.52-12.27,1.49-16,9.16-43.35,89.24-109.79,154.1-203,190.28-36.3,14.1-74,22.19-112.67,26.25-2.62.27-5.12,0-7.68.82h0c-23.58,0-47.16,1.72-70.75,1.72L470,907.18h0c2.6-4.22,4.83-7.75,7-11.34,30.33-50.93,56.2-103.8,62.7-163.62,6.76-62.14-19-110.86-66.48-151.43-8.28,21.85-15.76,42.34-23.92,62.55-1.71,4.22-5.34,9.58-9.17,10.7-14.91,4.34-21,14.83-24.5,28.71a234.43,234.43,0,0,1-11.12,33.4c-11.31,26.76-8.3,52.51,3.38,78.18,1.3,2.85,1.83,8,.18,9.95-20.18,23.9-44.56,42.24-75.32,54.23,26.69-42.29,12.81-77.49-16.75-110-15.12,15.78-15.1,15.77-4.36,33,9.29,14.89,18.52,29.82,27.36,44.05-9.95,14.38-37.4,13.64-28.87,41.39-18.08,0-34.7.23-51.32-.09-9.6-.18-16.5-4-19.18-14.53-6.19-24.29-19.54-42-45.88-46.88-1.85-.34-3.49-1.9-5.63-3.13,20.5-20.88,24.21-47.43,24.67-73.91,1-61,.37-122.11.22-183.16,0-3.53-.39-8.4-2.61-10.33-8.08-7-17-13-25.61-19.43ZM399.07,674c-12.14,5.33-24.83,9.17-37.43,13.25,21.18-14,42.52-27.77,63.39-42.22,4.8-3.33,9.44-8.42,11.6-13.74,9.92-24.46,19.16-49.2,28.07-74,1.53-4.28,1.79-10.13.14-14.26-15.37-38.27-42.21-67.06-76.39-89.52l1.91-3.83,20.32,7.33c3.32,2.48,6.53,5.11,10,7.41,28.52,19.08,49.35,44.29,60.41,77,1.63,4.83.27,10.59,1.11,15.79.75,4.65,1.17,10.85,4.22,13.42,60.62,51.28,80.55,116.21,62.83,192.35-7,30-19.12,58.84-28.9,88.21l-4,9.79,3.14,2.61C614,805.31,658.94,685.84,632.28,578.2l35.9,45.49c-1-11.12-1.1-18.61-2.47-25.85-4.14-21.73-8.78-43.35-13.23-65l-.2.25,41.43,47.29C687.33,490.07,648,410.42,564.83,367.74,497.64,332.24,421,323.08,346.7,332c.69,19.79,1.33,37.91,2,56l5.87,4.51,18.55-4.28,1.37,3.53c-25.79,14.65-44.17,36.08-58.28,61.42a4.22,4.22,0,0,0-2.22-1.08c-1.71-22.51-2-45.25-5.44-67.49a370.19,370.19,0,0,0-35.76-111.06c-1.78-3.52-2.44-11.06-9.9-5.85-1.61,1.37-4.57,2.7-4.61,4.1-.34,14.14-.38,28.3,0,42.44.06,2.22,2.64,4.37,4.05,6.56q3.52,52.86,7,105.72l-1.21.33q-8.13-16.46-16.25-32.92c-5.76,15.62-10,31.54-11.42,47.71-1.84,20.8-9.22,40.79-22.15,57.2-3.14,4-6.07,8.2-9.47,12.78l17.11,15q-.19,101-.27,202.05c0,3.06,1.8,6.12,2.76,9.19q-.88,6.95-1.76,13.9l-.26,1.35c-3.51,14.13-7,28.28-10.9,43.83,15.53,3.1,25.09,12.85,31,29,10.07,27.64,11.17,27.25,41,25.93,1.12,0,2.23-.69,3.88-1.23q-5.71-42.61-11.39-84.88c3.35-3.68,6.34-7.79,10.13-10.94,16.18-13.45,32.6-26.6,48.93-39.86L327.8,733.4c14.26,28.5,42.84,50.54,35.48,88.82,10-6.62,19.52-13.42,26.31-22.29,2.39-3.12-1.67-11.34-3.07-17.16-2-8.14-4.2-16.22-6.32-24.32,2.32-13.38,3.88-27,7.17-40.1,3.8-15.19,8.78-30,13.42-45-.56-.43.45,0-.11-.45ZM556,260.08c-3.44-20.53-6.3-34.91-11.12-57-19.31,22.88-43.9,24.08-66.33,30.54-16.46,5-41.62,5.61-35.26,29.69l-3.24,7.21c-5.06-18-9.69-34.47-15.3-54.36-15.48,21.31-35,28.1-55,35.23-14.33,5.1-28.15,13.17-40.29,22.41-14.29,10.86-13.44,14.37-1,28.14,1.29,11.6,7.72,15.93,19.06,13.81C495.3,296.82,666,358.58,698.35,519.56c8.56,38.34,6.59,76.85,6.89,115.44q-11.87-24.09-23.74-48.17l-2.1.49v75.89l-2.82.79-11.89-19.61L651.06,618.3c9.46,126.91-41.13,217.5-152,275.82C684.24,902.31,815,798,860.26,682L811.4,646.71c17.79,2.75,33.47,12.41,50.63,17.21,10.4,3.07,21.46,3.93,32.22,5.77l1.84-2.86c-17.78-26.42-18-55.92-16.51-85.72,10.39-38.46,3.92-74.88-12.68-110.33-5.44-11.6-12.3-16.94-25.29-11.76-3.66,1.46-8.27.53-12.45.7,11.51-7.56,23.52-14.48,34.37-22.88,9-6.94,16.56-15.65,27.43-26.16h0c-53.23-7-87.85-34.06-116.84-72.41-28-37.08-64.3-65.24-108.37-82.14-2.34-1.67-4.46-4.21-7.06-4.89-27.91-7.25-55.86-14.39-83.89-21.15-10-2.41-16,1.16-16.1,12.67C558.67,248.54,557,254.31,556,260.08ZM303.3,798.55l-2.84,1.05c1.46,9.72,2.89,19.47,4.6,30.86,5.06-3.28,8.67-5.6,13-8.41Z" transform="translate(-184.74 -163.01)"/><path class="cls-2" d="M652.48,532.82c4.45,21.67,9.09,43.29,13.23,65,1.37,7.24,1.46,14.73,2.47,25.85l-35.9-45.49c26.65,107.58-18.27,227-112.7,285.2l-3.25-2.54,4-9.79c3.64-3,8.1-5.45,10.79-9.16,39.77-55,61.37-115.64,55.14-184.24C579.42,563.81,506.43,489.52,421.14,458c-3.14-1.24-7-.76-10.46-1.08l-20.31-7.32c-.19,1.57-.39,3.13-.58,4.7,3.82,6.24,7.29,12.73,11.52,18.68,24,33.76,45.52,68.48,30.91,112.39-6,18-12.59,36.91-23.58,52-10.3,14.14-26.93,23.59-40.42,35.51-4.51,4-7.91,9.23-11.82,13.9l-1.24,3-11.21,5-15.37,10.27c-61.11-22.45-62.19-95.24-73-149.1l-.8-7.61,22.87,9.53c3.79,7,8,13.85,11.21,21.14,2.14,4.89,1.45,11.46,4.48,15.4,3.3,4.3,9.68,9.16,14.25,8.74s11.55-6.26,12.73-10.93A462.68,462.68,0,0,0,330.87,537c2-16,3.46-32.57-10-43.63-4.2,11.45-8.47,23-12.73,34.65l-4.35,0c-1.64-10.87-3.28-21.75-5.25-34.9l17.56-15.62,9.06-1.65-.64-4H290.91c2.69-3.06,4.95-6.74,8.19-9,3.54-2.5,8-3.72,12-5.49l5.05-4.11c14.15-25.41,32.6-46.9,58.51-61.55l-1.62-3.39-24,5.54c-.12-1.93-.25-3.85-.37-5.78-.64-18.11-1.28-36.23-2-56,173.78-20.14,336,58.1,347,248.37l-41.43-47.28m-273-84.85,2-.46-1-4.56-2.12.5Z" transform="translate(-184.74 -163.01)"/><path class="cls-3" d="M705.24,635c-.3-38.59,1.67-77.1-6.89-115.45-32.38-161-203-222.72-350.86-203.82-11.34,2.12-17.78-2.21-19.06-13.82,18-16.77,37.33-31.27,62.32-36.91-1.49,9.22-3,16.52-3.78,23.89-1,9.48,4,13.81,12.89,11.39,19.32-5.27,39-10,57.44-17.49,15.82-6.43,30-16.73,45.31-24.64,5.92-3.07,12.8-4.28,20.42-6.7-2,10.88-4.39,18.92-4.7,27-.54,14.52,1.85,15.88,16.22,12.91a183.88,183.88,0,0,1,93.2,4.77c31.92,9.92,56.06,31.47,79.9,53.47,27.68,25.54,57.74,47.44,93.42,60.66,7.56,2.8,15.2,5.43,25.84,9.21-7.88,4.26-12.36,8.34-17.32,9C796,430.49,782.14,431,768.4,432.1l-.94-.65,1,.53c46.23,48.19,76,109.83,73.13,178.7-23.19-45.19-42.88-67.43-62.87-70.95C780.55,645.66,749,759.19,664,828c28.25-6.75,50.44-23.71,70.6-43,40.28-38.61,71.41-82.42,72.8-142.52,1.93,2,3,3.14,4.06,4.25L860.27,682c-45.31,116-176,220.29-361.22,212.1,110.88-58.32,161.48-148.91,152-275.83,5.33,10.21,9.48,18.15,13.64,26.1-.87,1.64-2.7,3.45-2.43,4.88,1.45,7.81,4.11,15.45,5.07,23.3,2.35,19.2,4,38.48,6.17,60.26C693.23,701.39,704.11,669.8,705.24,635Z" transform="translate(-184.74 -163.01)"/><path class="cls-4" d="M768.4,432.1c13.74-1.09,27.57-1.61,41.19-3.55,5-.7,9.44-4.78,17.32-9-10.64-3.78-18.28-6.41-25.84-9.21-35.68-13.22-65.74-35.12-93.42-60.66-23.84-22-48-43.55-79.9-53.47a183.88,183.88,0,0,0-93.2-4.77c-14.37,3-16.76,1.61-16.22-12.91.31-8.12,2.72-16.16,4.7-27-7.62,2.42-14.5,3.63-20.42,6.7-15.27,7.91-29.49,18.21-45.31,24.64-18.47,7.5-38.12,12.22-57.44,17.49C391,302.7,386,298.37,387,288.89c.79-7.37,2.29-14.67,3.78-23.89-25,5.64-44.29,20.14-62.32,36.91-12.41-13.77-13.24-17.27,1-28.13,12.14-9.24,26-17.31,40.29-22.41,20-7.13,39.55-13.92,55-35.24,5.61,19.92,10.25,36.4,15.3,54.37l3.24-7.21,35.26-29.69c22.43-6.46,47-7.66,66.33-30.55,4.81,22.11,7.69,36.51,11.12,57,23-2.49,46-5.89,69.12-7.14,13.43-.72,27.06,2,40.59,3.19,44.07,16.9,80.35,45.06,108.37,82.14,29,38.36,63.61,65.45,116.85,72.41-10.88,10.51-18.47,19.21-27.44,26.16-10.85,8.4-22.86,15.32-34.37,22.88,1.84,3.66,3.2,7.67,5.6,10.91,24.48,32.44,38,70.75,44.82,110.48-1.5,29.81-1.27,59.32,16.53,85.76l-1.86,2.82c-10.77-1.84-21.82-2.7-32.22-5.77-17.16-4.8-32.84-14.46-50.62-17.21-1.07-1.11-2.13-2.23-4.06-4.25C806,702.56,774.83,746.37,734.55,785c-20.16,19.31-42.35,36.27-70.6,43C749,759.19,780.55,645.66,778.77,539.73c20,3.52,39.68,25.76,62.87,70.95,2.85-68.86-26.9-130.51-73.13-178.7Z" transform="translate(-184.74 -163.01)"/><path class="cls-5" d="M311.13,457.3c-4.05,1.77-8.49,3-12,5.49-3.24,2.29-5.5,6-8.19,9l-5.05.57c-7.61-8.1-15.2-6-20,5.65-5.67,3.33-11.45,6.47-17,10-13.16,8.5-14.38,12.85-8.23,27.65q1.38,18.76,2.78,37.52c-.81,4.19-2.58,8.44-2.28,12.55,2.07,27.83,4.57,55.64,6.94,83.45-1.12,15.49-1.38,31-2.85,46.5-2.18,22.08,5.71,40.27,20.41,56.09l14.25,14q5.68,42.35,11.4,84.88c-1.66.54-2.77,1.18-3.89,1.23-29.78,1.32-30.88,1.71-41-25.93-5.87-16.13-15.43-25.88-31-29,3.88-15.56,7.4-29.7,10.91-43.83.75-5.08,1.37-10.17,2-15.25.39-1.18,1.13-2.36,1.14-3.54q.15-99.63,0-199.25c0-2.82-2.38-5.63-3.65-8.45l-17.11-15c3.62-4.89,6.72-9.36,10.11-13.59,13.31-16.59,19.62-35.5,21.54-56.69,1.45-16.07,5.67-31.89,11.39-47.41q8.13,16.46,16.24,32.92l4.64.16L269,421.9q-3.36-50.55-6.73-101.09.29-26.55.56-53.1c7.46-5.21,8.12,2.33,9.9,5.85a370.19,370.19,0,0,1,35.76,111.06c3.45,22.24,3.73,45,5.44,67.49Q312.53,454.7,311.13,457.3ZM244,775.43c6.33,29.82,7.55,31.52,23.29,32.23C268.54,792.87,261.57,783.22,244,775.43Zm30.7-341.56-2.1-.91-.91,2.11C273.94,436.31,273.89,436.31,274.68,433.87Z" transform="translate(-184.74 -163.01)"/><path class="cls-6" d="M410.68,456.93c3.5.32,7.32-.16,10.46,1.08,85.28,31.49,158.3,105.81,165.11,199.66,6.23,68.6-15.37,129.27-55.14,184.24-2.69,3.71-7.15,6.14-10.79,9.16,9.78-29.37,21.91-58.19,28.9-88.21,17.72-76.14-2.21-141.07-62.83-192.35-3.05-2.57-3.47-8.77-4.22-13.42-.84-5.2.52-11-1.11-15.79-11.06-32.67-31.89-57.88-60.41-77C417.21,462,414,459.41,410.68,456.93Z" transform="translate(-184.74 -163.01)"/><path class="cls-6" d="M248.11,649.25c-2.37-27.81-4.87-55.62-6.94-83.45-.3-4.11,1.47-8.36,2.28-12.55L255.62,556c10.78,53.86,11.84,126.65,73,149.1l16.6,7.73L339,715c-16.33,13.26-32.75,26.41-48.93,39.86-3.79,3.15-6.78,7.26-10.13,10.94l-14.25-14-15.42-93C249.54,655.63,248.82,652.44,248.11,649.25Z" transform="translate(-184.74 -163.01)"/><path class="cls-7" d="M356.4,686.79c3.91-4.67,7.31-9.91,11.82-13.9,13.49-11.92,30.12-21.37,40.42-35.51,11-15.09,17.57-34,23.58-52,14.61-43.91-6.93-78.63-30.91-112.39-4.23-5.95-7.7-12.44-11.52-18.68,33.54,22.33,59.88,50.87,75,88.64,1.65,4.13,1.39,10-.14,14.26-8.91,24.85-18.15,49.59-28.07,74-2.16,5.32-6.8,10.41-11.6,13.74-20.87,14.45-42.21,28.21-63.39,42.22l.1-.1Z" transform="translate(-184.74 -163.01)"/><path class="cls-8" d="M339,715l6.2-2.21-16.6-7.73L344,694.79c3.54.9,7.24,3,10.58,2.49,9.35-1.33,18.55-3.7,29.53-6-6.84,22.42-16.41,45.5-3.86,67.19,2.12,8.1,4.35,16.18,6.32,24.32,1.4,5.82,5.46,14,3.07,17.16-6.79,8.87-16.27,15.67-26.31,22.29,7.36-38.28-21.22-60.32-35.48-88.82Z" transform="translate(-184.74 -163.01)"/><path class="cls-9" d="M705.24,635c-1.13,34.8-12,66.39-31.73,97.83-2.18-21.78-3.82-41.06-6.17-60.26-1-7.85-3.62-15.49-5.07-23.3-.27-1.43,1.56-3.24,2.43-4.88q5.76,9.52,11.54,19.05l3.16-.23V587.32c.62-.33,1.23-.67,1.84-1Z" transform="translate(-184.74 -163.01)"/><path class="cls-10" d="M879.58,581.11c-6.78-39.73-20.34-78-44.82-110.47-2.4-3.25-3.76-7.26-5.6-10.92,4.18-.17,8.79.76,12.45-.7,13-5.18,19.85.16,25.29,11.76C883.5,506.23,890,542.65,879.58,581.11Z" transform="translate(-184.74 -163.01)"/><path class="cls-10" d="M665.75,256.13c-13.53-1.18-27.16-3.91-40.59-3.19-23.1,1.25-46.09,4.65-69.12,7.14.94-5.77,2.63-11.54,2.66-17.32,0-11.51,6.07-15.08,16.1-12.67,28,6.76,56,13.9,83.89,21.15C661.29,251.92,663.41,254.46,665.75,256.13Z" transform="translate(-184.74 -163.01)"/><path class="cls-11" d="M380.2,758.45c-12.55-21.68-3-44.77,3.86-67.19-11,2.32-20.18,4.69-29.53,6-3.34.47-7-1.59-10.58-2.49l11.21-5,6.58-2.65-.1.1c12.58-4.07,25.24-7.92,37.37-13.22.55.57,1.11,1.11,1.7,1.64-4.52,14.22-9.72,28.26-13.34,42.71C384.08,731.49,382.52,745.07,380.2,758.45Z" transform="translate(-184.74 -163.01)"/><path class="cls-12" d="M226,526.68c1.27,2.82,3.64,5.63,3.65,8.45q.24,99.63,0,199.25c0,1.18-.75,2.36-1.14,3.54-1-3.07-2.76-6.13-2.76-9.19Q225.64,627.7,226,526.68Z" transform="translate(-184.74 -163.01)"/><path class="cls-13" d="M478.59,233.6l-35.26,29.69C437,239.21,462.13,238.64,478.59,233.6Z" transform="translate(-184.74 -163.01)"/><path class="cls-14" d="M262.86,267.71l-.56,53.1c-1.41-2.19-4-4.34-4.05-6.56-.38-14.14-.34-28.3,0-42.44C258.29,270.41,261.25,269.08,262.86,267.71Z" transform="translate(-184.74 -163.01)"/><path class="cls-15" d="M303.28,798.51l14.77,23.55-13,8.4-4.6-30.85Z" transform="translate(-184.74 -163.01)"/><path class="cls-8" d="M269,421.9l3.73,5.12-4.64-.16C268.43,425.2,268.73,423.55,269,421.9Z" transform="translate(-184.74 -163.01)"/><path class="cls-8" d="M311.13,457.3q1.41-2.6,2.83-5.19a4.22,4.22,0,0,1,2.22,1.08Z" transform="translate(-184.74 -163.01)"/><path class="cls-12" d="M227.19,747.76c-.26,1.8-.51,3.61-.77,5.41C226.68,751.37,226.93,749.56,227.19,747.76Z" transform="translate(-184.74 -163.01)"/><path class="cls-8" d="M348.67,388c.12,1.93.25,3.85.37,5.78C348.92,391.86,348.79,389.94,348.67,388Z" transform="translate(-184.74 -163.01)"/><path class="cls-11" d="M399,674l1.67-1.08c.7.52,0,1.81,0,2.72C400.12,675.11,399.56,674.57,399,674Z" transform="translate(-184.74 -163.01)"/><path class="cls-16" d="M308.18,528c4.26-11.6,8.53-23.2,12.73-34.65,13.42,11.06,12,27.68,10,43.63a462.68,462.68,0,0,1-10.51,55.25c-1.18,4.67-8,10.49-12.73,10.93s-10.95-4.44-14.25-8.74c-3-3.94-2.34-10.51-4.48-15.4-3.18-7.29-7.42-14.12-11.21-21.14.53-2.31.28-5.59,1.73-6.77,6.76-5.51,14-10.43,21.06-15.57l3-2.76-.39.16Z" transform="translate(-184.74 -163.01)"/><path class="cls-17" d="M300.48,535.54c-7.07,5.14-14.3,10.06-21.06,15.57-1.45,1.18-1.2,4.46-1.73,6.77l-22.87-9.53.8,7.61-12.17-2.71q-1.39-18.75-2.78-37.52c4-1.19,9.18-1.18,11.94-3.75,18.31-17,38.32-30.39,63.53-34.47l-17.56,15.62c2,13.15,3.61,24,5.25,34.9-.26,1.64-.51,3.27-.76,4.91l.39-.16Zm-14-9.52q-.58-9.25-1.16-18.52l-6.71-3c-5.32,6.82-10.68,13.6-15.95,20.47-4.51,5.87-1.52,8,4.42,8.64C276.42,538.36,282.08,533.74,286.51,526Z" transform="translate(-184.74 -163.01)"/><path class="cls-7" d="M316.14,477.51C290.93,481.59,270.92,495,252.61,512c-2.76,2.57-7.9,2.56-11.94,3.75-6.15-14.8-4.93-19.15,8.23-27.65,5.51-3.56,11.29-6.7,17-10l20-5.64,5.05-.57h33.65l.64,4Z" transform="translate(-184.74 -163.01)"/><path class="cls-8" d="M379.29,448.23l-1.14-4.52,2.12-.5,1,4.56Z" transform="translate(-184.74 -163.01)"/><path class="cls-8" d="M303.07,532.94c.25-1.64.5-3.27.76-4.91l4.35,0Z" transform="translate(-184.74 -163.01)"/><path class="cls-1" d="M651.06,532.18" transform="translate(-184.74 -163.01)"/><path class="cls-1" d="M652.48,532.82" transform="translate(-184.74 -163.01)"/><path class="cls-4" d="M768.51,432l-1-.53.94.65Z" transform="translate(-184.74 -163.01)"/><path class="cls-18" d="M250.25,658.83l15.42,93c-14.7-15.82-22.59-34-20.41-56.09,1.2-12.13,1.51-24.34,2.23-36.51Z" transform="translate(-184.74 -163.01)"/><path class="cls-19" d="M244,775.43c17.59,7.79,24.56,17.44,23.29,32.23C251.53,807,250.31,805.25,244,775.43Z" transform="translate(-184.74 -163.01)"/><path class="cls-2" d="M285.86,472.4l-20,5.64C270.66,466.44,278.25,464.3,285.86,472.4Z" transform="translate(-184.74 -163.01)"/><path class="cls-8" d="M250.25,658.83l-2.76.41q.3-5,.62-10C248.82,652.44,249.54,655.63,250.25,658.83Z" transform="translate(-184.74 -163.01)"/><path class="cls-8" d="M274.69,433.87c-.8,2.45-.75,2.44-3,1.2l.91-2.11Z" transform="translate(-184.74 -163.01)"/><path class="cls-8" d="M300.48,535.54l3-2.76Z" transform="translate(-184.74 -163.01)"/><path class="cls-13" d="M267.11,533.62c-5.94-.6-8.93-2.77-4.42-8.64,5.27-6.87,10.63-13.65,15.95-20.47l6.71,3q.58,9.27,1.16,18.52C283.69,511.68,271.7,529.53,267.11,533.62Z" transform="translate(-184.74 -163.01)"/><path class="cls-20" d="M267.11,533.62c3.36-3.51,6.53-7.22,10.12-10.46,4.37-3.94,8-3.87,9.28,2.86C282.08,533.74,276.42,538.36,267.11,533.62Z" transform="translate(-184.74 -163.01)"/><circle class="cls-2" cx="101.12" cy="352.72" r="5.48"/></svg>