<svg width="24" height="24" viewBox="0 0 24 24" fill="none" xmlns="http://www.w3.org/2000/svg">
<path fill-rule="evenodd" clip-rule="evenodd" d="M12 4C16.4186 4 20 7.58141 20 12C20 16.4186 16.4186 20 12 20C7.58141 20 4 16.4186 4 12C4 7.58141 7.58141 4 12 4Z" fill="#F0B90B"/>
<path d="M8.3964 11.9998L8.40217 14.1152L10.1996 15.1729V16.4114L7.35025 14.7402V11.3813L8.3964 11.9998ZM8.3964 9.88446V11.1172L7.34961 10.4979V9.26523L8.3964 8.646L9.44833 9.26523L8.3964 9.88446ZM10.9503 9.26523L11.997 8.646L13.049 9.26523L11.997 9.88446L10.9503 9.26523Z" fill="white"/>
<path d="M9.15332 13.6768V12.4383L10.2001 13.0575V14.2902L9.15332 13.6768ZM10.9508 15.6165L11.9976 16.2357L13.0495 15.6165V16.8492L11.9976 17.4684L10.9508 16.8492V15.6165ZM14.5508 9.26523L15.5976 8.646L16.6495 9.26523V10.4979L15.5976 11.1172V9.88446L14.5508 9.26523ZM15.5976 14.1152L15.6033 11.9998L16.6501 11.3806V14.7396L13.8008 16.4107V15.1723L15.5976 14.1152Z" fill="white"/>
<path d="M14.8466 13.6769L13.7998 14.2904V13.0577L14.8466 12.4385V13.6769Z" fill="white"/>
<path d="M14.8469 10.3229L14.8527 11.5614L13.0501 12.6191V14.7396L12.0033 15.353L10.9565 14.7396V12.6191L9.15396 11.5614V10.3229L10.2052 9.70369L11.9969 10.7665L13.7995 9.70369L14.8514 10.3229H14.8469ZM9.15332 8.20817L11.9976 6.53125L14.8469 8.20817L13.8001 8.8274L11.9976 7.76458L10.2001 8.8274L9.15332 8.20817Z" fill="white"/>
</svg>
