<svg width="24" height="24" viewBox="0 0 24 24" fill="none" xmlns="http://www.w3.org/2000/svg">
<path d="M16.1149 8.89021C15.8225 8.7003 15.4465 8.7003 15.1123 8.89021L12.7728 10.457L11.1854 11.454L8.88773 13.0208C8.5953 13.2107 8.21932 13.2107 7.88512 13.0208L6.08877 11.7863C5.79634 11.5964 5.58747 11.2166 5.58747 10.7893V8.41543C5.58747 8.03561 5.75457 7.65579 6.08877 7.4184L7.88512 6.23145C8.17755 6.04154 8.55352 6.04154 8.88773 6.23145L10.6841 7.46588C10.9765 7.65579 11.1854 8.03561 11.1854 8.46291V10.0297L12.7728 8.98516V7.37092C12.7728 6.9911 12.6057 6.61128 12.2715 6.37389L8.9295 4.14243C8.63708 3.95252 8.2611 3.95252 7.92689 4.14243L4.50131 6.42136C4.1671 6.61128 4 6.9911 4 7.37092V11.8338C4 12.2136 4.1671 12.5935 4.50131 12.8309L7.88512 15.0623C8.17755 15.2522 8.55352 15.2522 8.88773 15.0623L11.1854 13.543L12.7728 12.4985L15.0705 10.9792C15.3629 10.7893 15.7389 10.7893 16.0731 10.9792L17.8695 12.1662C18.1619 12.3561 18.3708 12.7359 18.3708 13.1632V15.5371C18.3708 15.9169 18.2037 16.2967 17.8695 16.5341L16.1149 17.7211C15.8225 17.911 15.4465 17.911 15.1123 17.7211L13.3159 16.5341C13.0235 16.3442 12.8146 15.9644 12.8146 15.5371V14.0178L11.2272 15.0623V16.6291C11.2272 17.0089 11.3943 17.3887 11.7285 17.6261L15.1123 19.8576C15.4047 20.0475 15.7807 20.0475 16.1149 19.8576L19.4987 17.6261C19.7911 17.4362 20 17.0564 20 16.6291V12.1187C20 11.7389 19.8329 11.3591 19.4987 11.1217L16.1149 8.89021Z" fill="#8247E5"/>
</svg>
