<svg width="24" height="24" viewBox="0 0 24 24" fill="none" xmlns="http://www.w3.org/2000/svg">
<path d="M12 20C16.4334 20 20 16.4334 20 12C20 7.56664 16.4334 4 12 4C7.56664 4 4 7.56664 4 12C4 16.4334 7.56664 20 12 20Z" fill="#2775CA"/>
<path d="M14.2 13.2664C14.2 12.0998 13.5 11.6998 12.1 11.5331C11.1 11.3998 10.9 11.1331 10.9 10.6664C10.9 10.1997 11.2334 9.89977 11.9 9.89977C12.5 9.89977 12.8334 10.0998 13 10.5998C13.0334 10.6998 13.1334 10.7664 13.2334 10.7664H13.7667C13.9 10.7664 14 10.6664 14 10.5331V10.4998C13.8667 9.76641 13.2667 9.19977 12.5 9.13313V8.33313C12.5 8.19977 12.4 8.09977 12.2334 8.06641H11.7334C11.6 8.06641 11.5 8.16641 11.4667 8.33313V9.09977C10.4667 9.23313 9.8334 9.89977 9.8334 10.7331C9.8334 11.8331 10.5 12.2664 11.9 12.4331C12.8334 12.5998 13.1334 12.7998 13.1334 13.3331C13.1334 13.8665 12.6667 14.2331 12.0334 14.2331C11.1667 14.2331 10.8667 13.8664 10.7667 13.3664C10.7334 13.2331 10.6334 13.1664 10.5334 13.1664H9.96668C9.8334 13.1664 9.7334 13.2664 9.7334 13.3998V13.4331C9.86668 14.2664 10.4 14.8664 11.5 15.0331V15.8331C11.5 15.9664 11.6 16.0664 11.7667 16.0998H12.2667C12.4 16.0998 12.5 15.9998 12.5334 15.8331V15.0331C13.5334 14.8664 14.2 14.1664 14.2 13.2664V13.2664Z" fill="white"/>
<path d="M10.2997 16.7668C7.69967 15.8335 6.36631 12.9335 7.33303 10.3668C7.83303 8.96678 8.93303 7.90014 10.2997 7.40014C10.433 7.3335 10.4997 7.2335 10.4997 7.06678V6.60014C10.4997 6.46678 10.433 6.36678 10.2997 6.3335C10.2663 6.3335 10.1997 6.3335 10.1663 6.36678C6.99967 7.36678 5.26631 10.7335 6.26631 13.9001C6.86631 15.7668 8.29967 17.2001 10.1663 17.8001C10.2997 17.8668 10.433 17.8001 10.4663 17.6668C10.4997 17.6335 10.4997 17.6001 10.4997 17.5335V17.0668C10.4997 16.9668 10.3997 16.8335 10.2997 16.7668ZM13.833 6.36678C13.6997 6.30014 13.5663 6.36678 13.533 6.50014C13.4997 6.5335 13.4997 6.56678 13.4997 6.6335V7.10014C13.4997 7.2335 13.5997 7.36678 13.6997 7.4335C16.2997 8.36678 17.633 11.2668 16.6663 13.8335C16.1663 15.2335 15.0663 16.3001 13.6997 16.8001C13.5663 16.8668 13.4997 16.9668 13.4997 17.1335V17.6001C13.4997 17.7335 13.5663 17.8335 13.6997 17.8668C13.733 17.8668 13.7997 17.8668 13.833 17.8335C16.9997 16.8335 18.733 13.4668 17.733 10.3001C17.133 8.40014 15.6663 6.96678 13.833 6.36678V6.36678Z" fill="white"/>
</svg>
