<svg width="24" height="24" viewBox="0 0 24 24" fill="none" xmlns="http://www.w3.org/2000/svg">
<path fill-rule="evenodd" clip-rule="evenodd" d="M6.92936 5.06876L4.01199 11.2326C4.00089 11.2555 3.99737 11.2814 4.00195 11.3065C4.00653 11.3316 4.01897 11.3545 4.03745 11.372L11.9165 18.9663C11.9389 18.9879 11.9687 19 11.9997 19C12.0307 19 12.0606 18.9879 12.0829 18.9663L19.962 11.3725C19.9805 11.355 19.9929 11.3321 19.9975 11.307C20.0021 11.2819 19.9986 11.256 19.9875 11.2331L17.0701 5.06923C17.0607 5.04853 17.0456 5.031 17.0265 5.01872C17.0074 5.00645 16.9853 4.99995 16.9626 5.00001H7.03777C7.01503 4.99972 6.9927 5.00606 6.97346 5.01826C6.95422 5.03046 6.9389 5.048 6.92936 5.06876V5.06876V5.06876Z" fill="#50AF95"/>
<path fill-rule="evenodd" clip-rule="evenodd" d="M13.0127 11.8658C12.9562 11.8701 12.6639 11.8876 12.012 11.8876C11.4935 11.8876 11.1253 11.872 10.9962 11.8658C8.99235 11.7772 7.49667 11.4263 7.49667 11.0062C7.49667 10.5861 8.99235 10.2357 10.9962 10.1456V11.5164C11.1272 11.5259 11.5024 11.5481 12.021 11.5481C12.6432 11.5481 12.9548 11.5221 13.0109 11.5169V10.1466C15.0104 10.2362 16.5028 10.5871 16.5028 11.0062C16.5028 11.4253 15.0109 11.7762 13.0109 11.8653L13.0127 11.8658ZM13.0127 10.0048V8.77821H15.8033V6.90771H8.20562V8.77821H10.9957V10.0043C8.72791 10.1091 7.02246 10.561 7.02246 11.1025C7.02246 11.6439 8.72791 12.0953 10.9957 12.2006V16.1312H13.0123V12.1991C15.2749 12.0944 16.9775 11.643 16.9775 11.102C16.9775 10.561 15.2763 10.1096 13.0123 10.0043L13.0127 10.0048Z" fill="white"/>
</svg>
